<?xml version="1.0" encoding="UTF-8" standalone="no"?>
<svg
   xmlns:dc="http://purl.org/dc/elements/1.1/"
   xmlns:cc="http://creativecommons.org/ns#"
   xmlns:rdf="http://www.w3.org/1999/02/22-rdf-syntax-ns#"
   xmlns:svg="http://www.w3.org/2000/svg"
   xmlns="http://www.w3.org/2000/svg"
   xmlns:sodipodi="http://sodipodi.sourceforge.net/DTD/sodipodi-0.dtd"
   xmlns:inkscape="http://www.inkscape.org/namespaces/inkscape"
   sodipodi:docname="AppDownToDevBoard.svg"
   inkscape:version="1.0beta2 (2b71d25, 2019-12-03)"
   id="svg8"
   version="1.1"
   viewBox="0 0 210 297"
   height="297mm"
   width="210mm">
  <defs
     id="defs2" />
  <sodipodi:namedview
     inkscape:window-maximized="0"
     inkscape:window-y="23"
     inkscape:window-x="0"
     inkscape:window-height="880"
     inkscape:window-width="1600"
     showgrid="false"
     inkscape:document-rotation="0"
     inkscape:current-layer="g437"
     inkscape:document-units="mm"
     inkscape:cy="735.86682"
     inkscape:cx="469.57829"
     inkscape:zoom="0.91064572"
     inkscape:pageshadow="2"
     inkscape:pageopacity="0.0"
     borderopacity="1.0"
     bordercolor="#666666"
     pagecolor="#ffffff"
     id="base" />
  <metadata
     id="metadata5">
    <rdf:RDF>
      <cc:Work
         rdf:about="">
        <dc:format>image/svg+xml</dc:format>
        <dc:type
           rdf:resource="http://purl.org/dc/dcmitype/StillImage" />
        <dc:title></dc:title>
      </cc:Work>
    </rdf:RDF>
  </metadata>
  <g
     id="layer1"
     inkscape:groupmode="layer"
     inkscape:label="Layer 1">
    <g
       transform="matrix(0.46303216,0,0,0.46303216,-11.290413,195.97871)"
       id="g437">
      <path
         style="stroke-width:0.836445"
         inkscape:connector-curvature="0"
         d="m 290.35294,51.45 h -76.15588 a 2.8475374,4.07 0 0 1 -2.84754,-4.07 V 16.54 a 2.8475374,4.07 0 0 1 2.84754,-4.07 h 76.15588 a 2.8475374,4.07 0 0 1 2.84754,4.07 v 30.84 a 2.8475374,4.07 0 0 1 -2.84754,4.07 z M 214.19706,13.83 a 1.8960261,2.71 0 0 0 -1.90302,2.71 v 30.84 a 1.9030226,2.72 0 0 0 1.90302,2.71 h 76.15588 a 1.9030226,2.72 0 0 0 1.90302,-2.71 V 16.54 a 1.8960261,2.71 0 0 0 -1.90302,-2.71 z"
         fill="#f7bc2f"
         id="path42" />
      <path
         inkscape:connector-curvature="0"
         d="m 60.56,19.56 h 47 a 1.87,1.87 0 0 1 1.87,1.86 v 8.06 a 1.87,1.87 0 0 1 -1.87,1.86 h -47 A 1.87,1.87 0 0 1 58.7,29.48 v -8.06 a 1.86,1.86 0 0 1 1.86,-1.86 z"
         fill="#7e868c"
         id="path44" />
      <path
         inkscape:connector-curvature="0"
         d="m 58.7,24.36 h 50.7 V 63.12 H 58.7 Z"
         fill="#fff"
         id="path46" />
      <circle
         cx="66.07"
         cy="21.959999"
         fill="#97c93d"
         r="0.85000002"
         id="circle48" />
      <path
         inkscape:connector-curvature="0"
         d="m 71.11,50.72 h 1.71 v 1.71 h -1.71 z"
         fill="#d9dcdb"
         id="path50" />
      <path
         inkscape:connector-curvature="0"
         d="m 71.11,46.84 h 1.71 v 1.71 h -1.71 z"
         fill="#d9dcdb"
         id="path52" />
      <path
         inkscape:connector-curvature="0"
         d="m 74.52,50.72 h 23.57 v 1.71 H 74.52 Z"
         fill="#97c93d"
         id="path54" />
      <path
         inkscape:connector-curvature="0"
         d="m 74.52,46.84 h 18.3 v 1.71 h -18.3 z"
         fill="#7e868c"
         id="path56" />
      <path
         inkscape:connector-curvature="0"
         d="m 58.7,24.36 h 9.77 V 63.12 H 58.7 Z"
         fill="#d9dcdb"
         id="path58" />
      <path
         inkscape:connector-curvature="0"
         d="m 71.11,53.98 h 38.3 v 9.15 h -38.3 z"
         fill="#d9dcdb"
         id="path60" />
      <path
         inkscape:connector-curvature="0"
         d="m 59.32,24.21 h 49.62 v 4.03 H 59.32 Z"
         fill="#068fbe"
         id="path62" />
      <path
         inkscape:connector-curvature="0"
         d="M 108.63,23.9 V 62.35 H 59.48 V 23.9 Z m 0.78,-0.78 H 58.7 v 40 h 50.71 z"
         fill="#7e868c"
         id="path64" />
      <path
         inkscape:connector-curvature="0"
         d="m 68.47,21.11 h 31.17 v 1.71 H 68.47 Z"
         fill="#d9dcdb"
         id="path66" />
      <g
         fill="#333e48"
         id="g114">
        <path
           inkscape:connector-curvature="0"
           d="M 76.05,34.92 A 2.09,2.09 0 0 1 74.21,36 2.11,2.11 0 1 1 76,32.72 L 76.78,32.1 A 3.11,3.11 0 1 0 77,35.25 Z"
           id="path68" />
        <path
           inkscape:connector-curvature="0"
           d="m 80.54,30.8 h 0.68 v 6.12 h -0.68 z"
           id="path70" />
        <path
           inkscape:connector-curvature="0"
           d="m 77.81,33.56 h 6.14 v 0.68 h -6.14 z"
           id="path72" />
        <path
           inkscape:connector-curvature="0"
           d="m 87.67,30.8 h 0.68 v 6.12 h -0.68 z"
           id="path74" />
        <path
           inkscape:connector-curvature="0"
           d="m 84.94,33.56 h 6.14 v 0.68 h -6.14 z"
           id="path76" />
        <path
           inkscape:connector-curvature="0"
           d="m 36.2,74.58 v 8.75 h -1 V 76.9 a 2.53,2.53 0 0 1 0,-0.27 c 0,-0.1 0,-0.2 0,-0.3 l -3,5.47 a 0.44,0.44 0 0 1 -0.42,0.27 H 31.61 A 0.45,0.45 0 0 1 31.18,81.8 l -3.07,-5.5 a 4.41,4.41 0 0 1 0,0.6 v 6.43 h -1 V 74.58 H 28 a 0.81,0.81 0 0 1 0.25,0 0.33,0.33 0 0 1 0.16,0.17 l 3,5.39 0.14,0.3 c 0.05,0.11 0.09,0.22 0.13,0.33 l 0.13,-0.33 a 1.77,1.77 0 0 1 0.15,-0.31 l 3,-5.38 a 0.35,0.35 0 0 1 0.17,-0.17 0.78,0.78 0 0 1 0.24,0 z"
           id="path78" />
        <path
           inkscape:connector-curvature="0"
           d="m 39.18,78 a 3.17,3.17 0 0 1 0.88,-0.72 2.33,2.33 0 0 1 1.13,-0.27 2.21,2.21 0 0 1 1,0.21 2,2 0 0 1 0.75,0.6 2.9,2.9 0 0 1 0.46,1 4.55,4.55 0 0 1 0.16,1.27 4.94,4.94 0 0 1 -0.18,1.37 3.05,3.05 0 0 1 -0.53,1 2.41,2.41 0 0 1 -0.84,0.68 2.51,2.51 0 0 1 -1.11,0.24 2.15,2.15 0 0 1 -1,-0.23 2.24,2.24 0 0 1 -0.73,-0.65 v 0.56 a 0.26,0.26 0 0 1 -0.28,0.23 h -0.71 v -9 h 1.1 z m 0,3.8 a 1.8,1.8 0 0 0 0.65,0.57 1.86,1.86 0 0 0 0.79,0.16 A 1.58,1.58 0 0 0 42,82 3,3 0 0 0 42.46,80.16 2.77,2.77 0 0 0 42,78.45 1.4,1.4 0 0 0 40.82,77.92 1.73,1.73 0 0 0 39.9,78.16 2.49,2.49 0 0 0 39.17,78.85 Z"
           id="path80" />
        <path
           inkscape:connector-curvature="0"
           d="m 49.94,82.47 a 2,2 0 0 1 -0.48,0.42 3.36,3.36 0 0 1 -0.6,0.3 4.55,4.55 0 0 1 -0.66,0.17 4,4 0 0 1 -0.68,0.06 3,3 0 0 1 -1.18,-0.22 2.73,2.73 0 0 1 -0.94,-0.63 3,3 0 0 1 -0.61,-1 4.11,4.11 0 0 1 -0.22,-1.42 3.7,3.7 0 0 1 0.2,-1.21 2.86,2.86 0 0 1 0.57,-1 2.74,2.74 0 0 1 0.91,-0.65 3.11,3.11 0 0 1 1.21,-0.23 2.9,2.9 0 0 1 1,0.18 2.54,2.54 0 0 1 0.82,0.54 2.47,2.47 0 0 1 0.54,0.87 3.26,3.26 0 0 1 0.18,1.16 0.85,0.85 0 0 1 0,0.35 0.26,0.26 0 0 1 -0.21,0.08 h -4.14 a 3.41,3.41 0 0 0 0.16,1 2.06,2.06 0 0 0 0.4,0.73 1.65,1.65 0 0 0 0.61,0.43 2.18,2.18 0 0 0 0.79,0.14 2.5,2.5 0 0 0 0.71,-0.09 3,3 0 0 0 0.51,-0.21 l 0.35,-0.2 a 0.54,0.54 0 0 1 0.25,-0.1 0.25,0.25 0 0 1 0.21,0.11 z m -0.87,-2.91 a 2.17,2.17 0 0 0 -0.11,-0.69 1.59,1.59 0 0 0 -0.31,-0.54 1.49,1.49 0 0 0 -0.5,-0.36 1.78,1.78 0 0 0 -0.67,-0.12 1.66,1.66 0 0 0 -1.23,0.45 2.17,2.17 0 0 0 -0.57,1.26 z"
           id="path82" />
        <path
           inkscape:connector-curvature="0"
           d="m 56.49,74.34 v 9 h -0.65 a 0.27,0.27 0 0 1 -0.29,-0.22 l -0.1,-0.75 a 3.25,3.25 0 0 1 -0.9,0.76 2.26,2.26 0 0 1 -1.17,0.3 2.19,2.19 0 0 1 -1,-0.21 1.93,1.93 0 0 1 -0.74,-0.6 2.85,2.85 0 0 1 -0.47,-1 A 5.08,5.08 0 0 1 51,80.26 4.28,4.28 0 0 1 51.22,79 a 3,3 0 0 1 0.53,-1 2.34,2.34 0 0 1 0.84,-0.68 2.52,2.52 0 0 1 1.12,-0.32 2.21,2.21 0 0 1 1,0.19 2.32,2.32 0 0 1 0.72,0.53 v -3.38 z m -1.09,4.28 a 1.58,1.58 0 0 0 -0.66,-0.57 1.83,1.83 0 0 0 -0.79,-0.17 1.55,1.55 0 0 0 -1.32,0.62 2.88,2.88 0 0 0 -0.47,1.76 4.48,4.48 0 0 0 0.11,1 1.88,1.88 0 0 0 0.3,0.7 1.23,1.23 0 0 0 0.5,0.41 1.53,1.53 0 0 0 0.66,0.13 1.72,1.72 0 0 0 0.94,-0.25 2.49,2.49 0 0 0 0.73,-0.69 z"
           id="path84" />
        <path
           inkscape:connector-curvature="0"
           d="m 69.68,79 a 5,5 0 0 1 -0.31,1.8 4.2,4.2 0 0 1 -0.88,1.42 4,4 0 0 1 -1.36,0.92 5,5 0 0 1 -3.52,0 4.08,4.08 0 0 1 -1.37,-0.92 4.18,4.18 0 0 1 -0.87,-1.42 5,5 0 0 1 -0.32,-1.8 5,5 0 0 1 0.32,-1.81 4.14,4.14 0 0 1 0.87,-1.41 4,4 0 0 1 1.37,-0.93 4.86,4.86 0 0 1 3.52,0 3.92,3.92 0 0 1 1.36,0.93 4.16,4.16 0 0 1 0.88,1.41 5,5 0 0 1 0.31,1.81 z m -1.21,0 a 4.65,4.65 0 0 0 -0.22,-1.45 3,3 0 0 0 -0.63,-1.08 2.58,2.58 0 0 0 -1,-0.68 3.53,3.53 0 0 0 -2.56,0 2.7,2.7 0 0 0 -1,0.68 3,3 0 0 0 -0.63,1.08 4.65,4.65 0 0 0 -0.17,1.45 4.54,4.54 0 0 0 0.22,1.44 3,3 0 0 0 0.63,1.08 2.59,2.59 0 0 0 1,0.68 3.53,3.53 0 0 0 2.56,0 2.48,2.48 0 0 0 1,-0.68 3,3 0 0 0 0.63,-1.08 4.54,4.54 0 0 0 0.17,-1.44 z"
           id="path86" />
        <path
           inkscape:connector-curvature="0"
           d="m 72,78 a 5.51,5.51 0 0 1 0.43,-0.41 3,3 0 0 1 0.48,-0.31 2.06,2.06 0 0 1 0.54,-0.2 2.37,2.37 0 0 1 0.61,-0.07 2.05,2.05 0 0 1 0.89,0.17 1.73,1.73 0 0 1 0.65,0.47 2.12,2.12 0 0 1 0.4,0.74 3.23,3.23 0 0 1 0.13,1 v 3.94 h -1.07 v -3.94 a 1.69,1.69 0 0 0 -0.32,-1.09 1.2,1.2 0 0 0 -1,-0.38 1.77,1.77 0 0 0 -0.9,0.23 2.81,2.81 0 0 0 -0.77,0.63 v 4.55 H 71 v -6.18 h 0.65 a 0.27,0.27 0 0 1 0.29,0.22 z"
           id="path88" />
        <path
           inkscape:connector-curvature="0"
           d="m 78.94,74.34 v 9 h -1.09 v -9 z"
           id="path90" />
        <path
           inkscape:connector-curvature="0"
           d="m 82.07,75.2 a 0.73,0.73 0 0 1 -0.06,0.3 0.81,0.81 0 0 1 -0.17,0.24 0.7,0.7 0 0 1 -0.25,0.17 0.8,0.8 0 0 1 -0.3,0.06 0.73,0.73 0 0 1 -0.3,-0.06 0.66,0.66 0 0 1 -0.24,-0.17 0.81,0.81 0 0 1 -0.17,-0.24 0.73,0.73 0 0 1 -0.06,-0.3 0.8,0.8 0 0 1 0.06,-0.3 0.85,0.85 0 0 1 0.17,-0.25 0.81,0.81 0 0 1 0.24,-0.17 0.73,0.73 0 0 1 0.3,-0.06 0.8,0.8 0 0 1 0.3,0.06 0.81,0.81 0 0 1 0.42,0.42 0.8,0.8 0 0 1 0.06,0.3 z m -0.23,2 v 6.18 h -1.08 v -6.23 z"
           id="path92" />
        <path
           inkscape:connector-curvature="0"
           d="m 84.65,78 a 5.51,5.51 0 0 1 0.43,-0.41 3,3 0 0 1 0.48,-0.31 2.06,2.06 0 0 1 0.54,-0.2 2.37,2.37 0 0 1 0.61,-0.07 2.05,2.05 0 0 1 0.89,0.17 1.73,1.73 0 0 1 0.65,0.47 2.29,2.29 0 0 1 0.4,0.74 3.59,3.59 0 0 1 0.13,1 v 3.94 h -1.09 v -3.94 a 1.69,1.69 0 0 0 -0.32,-1.09 1.2,1.2 0 0 0 -1,-0.38 1.77,1.77 0 0 0 -0.9,0.23 2.81,2.81 0 0 0 -0.77,0.63 v 4.55 h -1.07 v -6.18 h 0.65 a 0.27,0.27 0 0 1 0.29,0.22 z"
           id="path94" />
        <path
           inkscape:connector-curvature="0"
           d="m 95.46,82.47 a 2,2 0 0 1 -0.48,0.42 3.36,3.36 0 0 1 -0.6,0.3 5.06,5.06 0 0 1 -0.67,0.17 3.79,3.79 0 0 1 -0.67,0.06 3.11,3.11 0 0 1 -1.19,-0.22 2.6,2.6 0 0 1 -0.93,-0.63 2.89,2.89 0 0 1 -0.61,-1 4.11,4.11 0 0 1 -0.22,-1.42 3.45,3.45 0 0 1 0.2,-1.21 2.86,2.86 0 0 1 0.57,-1 2.65,2.65 0 0 1 0.91,-0.65 3.07,3.07 0 0 1 1.23,-0.24 2.8,2.8 0 0 1 1,0.18 2.44,2.44 0 0 1 0.82,0.54 2.47,2.47 0 0 1 0.54,0.87 3.26,3.26 0 0 1 0.2,1.17 0.68,0.68 0 0 1 -0.06,0.35 0.22,0.22 0 0 1 -0.2,0.08 h -4.14 a 3.76,3.76 0 0 0 0.16,1 2.22,2.22 0 0 0 0.4,0.73 1.74,1.74 0 0 0 0.61,0.43 2.24,2.24 0 0 0 0.8,0.14 2.38,2.38 0 0 0 0.7,-0.09 2.45,2.45 0 0 0 0.51,-0.21 3.61,3.61 0 0 0 0.36,-0.2 A 0.54,0.54 0 0 1 95,82 0.25,0.25 0 0 1 95.21,82.11 Z M 94.58,79.56 A 2.17,2.17 0 0 0 94.48,78.87 1.61,1.61 0 0 0 94.16,78.33 1.36,1.36 0 0 0 93.67,77.97 1.78,1.78 0 0 0 93,77.85 1.7,1.7 0 0 0 91.76,78.3 2.17,2.17 0 0 0 91.2,79.56 Z"
           id="path96" />
        <path
           inkscape:connector-curvature="0"
           d="m 106.42,81.52 a 0.25,0.25 0 0 1 0.17,0.08 l 0.47,0.51 a 3.67,3.67 0 0 1 -1.3,1 4.54,4.54 0 0 1 -1.86,0.35 4.27,4.27 0 0 1 -1.71,-0.33 3.68,3.68 0 0 1 -1.31,-0.91 4.28,4.28 0 0 1 -0.84,-1.42 5.25,5.25 0 0 1 -0.3,-1.81 5,5 0 0 1 0.31,-1.81 4.24,4.24 0 0 1 0.87,-1.42 3.9,3.9 0 0 1 1.36,-0.92 4.42,4.42 0 0 1 1.74,-0.33 4.26,4.26 0 0 1 1.65,0.3 4.2,4.2 0 0 1 1.25,0.81 l -0.39,0.55 a 0.28,0.28 0 0 1 -0.09,0.1 0.25,0.25 0 0 1 -0.16,0 0.51,0.51 0 0 1 -0.27,-0.12 3,3 0 0 0 -1.05,-0.53 3.23,3.23 0 0 0 -0.95,-0.12 3.34,3.34 0 0 0 -1.24,0.23 2.89,2.89 0 0 0 -1,0.68 3.16,3.16 0 0 0 -0.63,1.09 4.37,4.37 0 0 0 -0.14,1.5 4.18,4.18 0 0 0 0.23,1.46 3.19,3.19 0 0 0 0.64,1.08 2.71,2.71 0 0 0 1,0.68 3.17,3.17 0 0 0 1.2,0.23 4.9,4.9 0 0 0 0.7,0 2.59,2.59 0 0 0 0.58,-0.14 2.34,2.34 0 0 0 0.5,-0.25 4.58,4.58 0 0 0 0.45,-0.35 0.29,0.29 0 0 1 0.12,-0.19 z"
           id="path98" />
        <path
           inkscape:connector-curvature="0"
           d="m 110.66,77.05 a 3.16,3.16 0 0 1 1.22,0.22 2.48,2.48 0 0 1 0.93,0.65 2.76,2.76 0 0 1 0.59,1 4.22,4.22 0 0 1 0,2.63 2.81,2.81 0 0 1 -0.59,1 2.44,2.44 0 0 1 -0.93,0.63 3.16,3.16 0 0 1 -1.22,0.23 3.25,3.25 0 0 1 -1.23,-0.23 2.6,2.6 0 0 1 -0.93,-0.63 2.81,2.81 0 0 1 -0.59,-1 4.42,4.42 0 0 1 0,-2.63 2.76,2.76 0 0 1 0.59,-1 2.65,2.65 0 0 1 0.93,-0.65 3.24,3.24 0 0 1 1.23,-0.22 z m 0,5.52 A 1.61,1.61 0 0 0 112,82 a 3.51,3.51 0 0 0 0,-3.44 1.59,1.59 0 0 0 -1.37,-0.62 2,2 0 0 0 -0.81,0.16 1.51,1.51 0 0 0 -0.57,0.46 2,2 0 0 0 -0.34,0.74 3.7,3.7 0 0 0 -0.12,1 2.88,2.88 0 0 0 0.46,1.72 1.62,1.62 0 0 0 1.41,0.55 z"
           id="path100" />
        <path
           inkscape:connector-curvature="0"
           d="m 115,83.33 v -6.18 h 0.65 a 0.27,0.27 0 0 1 0.29,0.22 L 116,78 a 3.13,3.13 0 0 1 0.77,-0.69 1.79,1.79 0 0 1 1,-0.27 1.43,1.43 0 0 1 1,0.35 2,2 0 0 1 0.56,0.94 1.93,1.93 0 0 1 0.34,-0.58 1.87,1.87 0 0 1 0.48,-0.41 2.13,2.13 0 0 1 0.56,-0.23 2.35,2.35 0 0 1 0.6,-0.07 2.41,2.41 0 0 1 0.87,0.15 1.88,1.88 0 0 1 0.65,0.46 2.06,2.06 0 0 1 0.4,0.73 3.45,3.45 0 0 1 0.14,1 v 3.94 h -1.09 v -3.93 a 1.68,1.68 0 0 0 -0.32,-1.1 1.14,1.14 0 0 0 -0.92,-0.37 1.52,1.52 0 0 0 -0.51,0.09 1.19,1.19 0 0 0 -0.42,0.28 1.25,1.25 0 0 0 -0.29,0.46 1.79,1.79 0 0 0 -0.11,0.64 v 3.94 h -1.09 v -3.94 a 1.75,1.75 0 0 0 -0.3,-1.11 1.07,1.07 0 0 0 -0.87,-0.36 1.42,1.42 0 0 0 -0.75,0.21 2.49,2.49 0 0 0 -0.63,0.59 v 4.61 z"
           id="path102" />
        <path
           inkscape:connector-curvature="0"
           d="m 126.06,78.1 a 3.3,3.3 0 0 1 0.91,-0.77 2.26,2.26 0 0 1 1.17,-0.29 2.19,2.19 0 0 1 1,0.2 2,2 0 0 1 0.74,0.6 3,3 0 0 1 0.47,1 5.05,5.05 0 0 1 0.17,1.36 4,4 0 0 1 -0.19,1.27 2.9,2.9 0 0 1 -0.53,1 2.44,2.44 0 0 1 -2,0.93 2.12,2.12 0 0 1 -1.69,-0.73 v 2.74 H 125 v -8.26 h 0.65 a 0.27,0.27 0 0 1 0.29,0.22 z m 0.06,3.74 a 1.8,1.8 0 0 0 0.65,0.57 1.87,1.87 0 0 0 0.8,0.16 1.57,1.57 0 0 0 1.33,-0.57 2.88,2.88 0 0 0 0.46,-1.76 4.53,4.53 0 0 0 -0.1,-1 2.23,2.23 0 0 0 -0.31,-0.71 1.23,1.23 0 0 0 -0.5,-0.41 1.9,1.9 0 0 0 -1.59,0.12 2.52,2.52 0 0 0 -0.74,0.69 z"
           id="path104" />
        <path
           inkscape:connector-curvature="0"
           d="m 133.25,75.2 a 0.73,0.73 0 0 1 -0.06,0.3 0.81,0.81 0 0 1 -0.17,0.24 0.7,0.7 0 0 1 -0.25,0.17 0.81,0.81 0 0 1 -0.31,0.06 0.72,0.72 0 0 1 -0.29,-0.06 0.66,0.66 0 0 1 -0.24,-0.17 0.81,0.81 0 0 1 -0.17,-0.24 0.73,0.73 0 0 1 -0.06,-0.3 0.8,0.8 0 0 1 0.06,-0.3 0.85,0.85 0 0 1 0.17,-0.25 0.81,0.81 0 0 1 0.24,-0.17 0.72,0.72 0 0 1 0.29,-0.06 0.81,0.81 0 0 1 0.31,0.06 0.81,0.81 0 0 1 0.42,0.42 0.8,0.8 0 0 1 0.06,0.3 z m -0.23,2 v 6.18 h -1.09 v -6.23 z"
           id="path106" />
        <path
           inkscape:connector-curvature="0"
           d="m 135.93,74.34 v 9 h -1.09 v -9 z"
           id="path108" />
        <path
           inkscape:connector-curvature="0"
           d="m 142.71,82.47 a 2.22,2.22 0 0 1 -0.49,0.42 2.8,2.8 0 0 1 -0.6,0.3 4.55,4.55 0 0 1 -0.66,0.17 3.91,3.91 0 0 1 -0.68,0.06 3,3 0 0 1 -1.18,-0.22 2.6,2.6 0 0 1 -0.93,-0.63 2.91,2.91 0 0 1 -0.62,-1 4.37,4.37 0 0 1 -0.22,-1.42 3.7,3.7 0 0 1 0.2,-1.21 2.86,2.86 0 0 1 0.57,-1 2.74,2.74 0 0 1 0.91,-0.65 3.11,3.11 0 0 1 1.21,-0.23 2.9,2.9 0 0 1 1,0.18 2.54,2.54 0 0 1 0.82,0.54 2.47,2.47 0 0 1 0.54,0.87 3.26,3.26 0 0 1 0.19,1.17 0.71,0.71 0 0 1 -0.05,0.35 0.26,0.26 0 0 1 -0.21,0.08 h -4.13 a 3.41,3.41 0 0 0 0.16,1 2.06,2.06 0 0 0 0.4,0.73 1.65,1.65 0 0 0 0.61,0.43 2.22,2.22 0 0 0 0.79,0.14 2.4,2.4 0 0 0 1.22,-0.3 l 0.36,-0.2 a 0.47,0.47 0 0 1 0.24,-0.1 0.25,0.25 0 0 1 0.21,0.11 z m -0.88,-2.91 a 2.17,2.17 0 0 0 -0.11,-0.69 1.59,1.59 0 0 0 -0.31,-0.54 1.39,1.39 0 0 0 -0.5,-0.36 1.74,1.74 0 0 0 -0.67,-0.12 1.66,1.66 0 0 0 -1.23,0.45 2.17,2.17 0 0 0 -0.57,1.26 z"
           id="path110" />
        <path
           inkscape:connector-curvature="0"
           d="m 145.17,78.39 a 2.66,2.66 0 0 1 0.72,-1 1.54,1.54 0 0 1 1,-0.35 1.58,1.58 0 0 1 0.38,0 1.13,1.13 0 0 1 0.32,0.13 l -0.08,0.82 a 0.18,0.18 0 0 1 -0.18,0.15 1,1 0 0 1 -0.25,0 2.11,2.11 0 0 0 -0.38,0 1.42,1.42 0 0 0 -0.52,0.09 1.33,1.33 0 0 0 -0.41,0.25 1.72,1.72 0 0 0 -0.32,0.42 3.24,3.24 0 0 0 -0.26,0.56 v 3.91 h -1.09 v -6.22 h 0.62 a 0.27,0.27 0 0 1 0.33,0.29 z"
           id="path112" />
      </g>
      <path
         inkscape:connector-curvature="0"
         d="m 420.85,19.81 7.07,-4.07 a 3.09,3.09 0 0 1 1.48,-0.37 2.65,2.65 0 0 1 1.4,0.37 c 1,0.6 11.57,7 12,7.3 a 1.75,1.75 0 0 1 0.85,1.57 v 1.48 a 1.4,1.4 0 0 1 -0.64,1 l -0.5,0.31 c -0.78,0.46 -2.78,1.69 -3.21,2 l -0.12,0.11 -2.15,1.3 -16.22,-11 z"
         fill="#fff"
         id="path116" />
      <path
         inkscape:connector-curvature="0"
         d="m 429.38,16.14 a 1.92,1.92 0 0 1 1,0.27 c 1.05,0.61 12,7.29 12,7.29 0,0 0.58,0.39 0.5,0.87 V 26 a 0.59,0.59 0 0 1 -0.27,0.41 c -0.19,0.13 -3.32,2 -3.8,2.38 l -0.1,0.1 -1.65,1 -14.78,-10 6,-3.45 a 2.49,2.49 0 0 1 1.07,-0.26 m 0,-1.55 a 4.08,4.08 0 0 0 -1.87,0.48 l -6,3.44 -2.15,1.25 2.06,1.39 14.77,10 0.82,0.57 0.85,-0.53 1.66,-1 0.15,-0.1 0.14,-0.13 c 0.31,-0.21 1.36,-0.87 3.08,-1.92 a 3.62,3.62 0 0 1 0.53,-0.31 2.18,2.18 0 0 0 1,-1.56 v -0.09 -1.45 a 2.54,2.54 0 0 0 -1.21,-2.25 c -0.44,-0.28 -11,-6.7 -12,-7.31 a 3.47,3.47 0 0 0 -1.8,-0.48 z"
         fill="#7e868c"
         id="path118" />
      <path
         inkscape:connector-curvature="0"
         d="m 436.41,29.29 -0.36,-0.58 6.63,-4.12 a 0.22,0.22 0 0 0 0.05,-0.19 1,1 0 0 0 -0.37,-0.48 c -0.1,-0.06 -11.15,-6.87 -12.2,-7.48 a 1.86,1.86 0 0 0 -1.79,0 l -0.35,-0.59 a 2.59,2.59 0 0 1 2.48,0 c 1.06,0.62 11.77,7.22 12.22,7.5 a 1.59,1.59 0 0 1 0.68,0.95 1,1 0 0 1 -0.22,0.76 l -0.09,0.07 z"
         fill="#7e868c"
         id="path120" />
      <path
         inkscape:connector-curvature="0"
         d="m 425.61,20.86 4.22,-2.58 a 0.24,0.24 0 0 0 0.13,-0.21 c 0,-0.16 -0.21,-0.32 -0.48,-0.32 a 0.58,0.58 0 0 0 -0.35,0.1 L 425,20.3"
         fill="#7e868c"
         opacity=".4"
         id="path122" />
      <path
         inkscape:connector-curvature="0"
         d="m 427.11,21.74 4.21,-2.59 a 0.22,0.22 0 0 0 0.14,-0.21 c 0,-0.16 -0.22,-0.31 -0.49,-0.31 a 0.61,0.61 0 0 0 -0.35,0.1 l -4.1,2.42"
         fill="#7e868c"
         opacity=".4"
         id="path124" />
      <path
         inkscape:connector-curvature="0"
         d="M 428.58,22.59 432.8,20 a 0.24,0.24 0 0 0 0.13,-0.22 c 0,-0.15 -0.21,-0.31 -0.48,-0.31 a 0.58,0.58 0 0 0 -0.35,0.1 L 428,22"
         fill="#7e868c"
         opacity=".4"
         id="path126" />
      <path
         inkscape:connector-curvature="0"
         d="m 430,23.52 4.21,-2.58 a 0.23,0.23 0 0 0 0.14,-0.21 c 0,-0.16 -0.21,-0.31 -0.49,-0.31 a 0.63,0.63 0 0 0 -0.35,0.09 L 429.46,23"
         fill="#7e868c"
         opacity=".4"
         id="path128" />
      <path
         inkscape:connector-curvature="0"
         d="m 431.53,24.4 4.22,-2.59 a 0.21,0.21 0 0 0 0.13,-0.21 c 0,-0.16 -0.21,-0.31 -0.48,-0.31 a 0.61,0.61 0 0 0 -0.35,0.1 L 431,23.83"
         fill="#7e868c"
         opacity=".4"
         id="path130" />
      <path
         inkscape:connector-curvature="0"
         d="m 432.91,25.31 4.22,-2.58 a 0.24,0.24 0 0 0 0.13,-0.22 c 0,-0.15 -0.21,-0.31 -0.48,-0.31 a 0.61,0.61 0 0 0 -0.35,0.1 l -4.1,2.45"
         fill="#7e868c"
         opacity=".4"
         id="path132" />
      <path
         inkscape:connector-curvature="0"
         d="m 434.35,26.18 4.21,-2.58 a 0.23,0.23 0 0 0 0.14,-0.21 c 0,-0.16 -0.21,-0.31 -0.49,-0.31 a 0.63,0.63 0 0 0 -0.35,0.09 l -4.09,2.45"
         fill="#7e868c"
         opacity=".4"
         id="path134" />
      <path
         inkscape:connector-curvature="0"
         d="M 435.83,27.06 440,24.47 a 0.21,0.21 0 0 0 0.14,-0.21 c 0,-0.15 -0.22,-0.31 -0.49,-0.31 a 0.61,0.61 0 0 0 -0.35,0.1 l -4.1,2.44"
         fill="#7e868c"
         opacity=".4"
         id="path136" />
      <path
         inkscape:connector-curvature="0"
         d="m 417.65,15.52 37.46,22.41 v 2.45 L 418.87,62.36 381.9,40.09 v -2.88 z"
         fill="#fff"
         id="path138" />
      <path
         inkscape:connector-curvature="0"
         d="m 417.65,16.43 2.64,1.57 14.71,8.79 19.34,11.57 v 1.55 l -35.47,21.54 -36.2,-21.81 v -2 l 23.11,-14 7.5,-4.55 z m 0,-1.8 -0.8,0.48 -4.37,2.64 -7.48,4.55 -23.11,14 -0.76,0.45 v 3.75 l 0.76,0.44 36.2,21.81 0.79,0.49 0.8,-0.49 35.46,-21.52 0.76,-0.44 v -3.3 l -0.76,-0.45 -19.35,-11.58 -14.68,-8.77 -2.65,-1.58 z"
         fill="#7e868c"
         id="path140" />
      <path
         inkscape:connector-curvature="0"
         d="m 382.83,37.41 -0.31,0.5 36.29,22.16 35.68,-21.44 -0.31,-0.5 -35.37,21.26 z"
         fill="#7e868c"
         id="path142" />
      <path
         inkscape:connector-curvature="0"
         d="m 417.71,34.75 13.75,-8.18 -13.48,-8.31 -14.02,8.31 0.13,0.08 0.04,-0.08 0.06,0.08 13.79,-8.18 13.11,8.1 -13.38,7.94 -13.52,-8.02 -0.06,0.08 0.06,0.08 -0.06,-0.08 -0.04,0.08 z"
         fill="#7e868c"
         opacity=".2"
         id="path144" />
      <path
         inkscape:connector-curvature="0"
         d="m 419.34,55.16 a 6.45,6.45 0 0 1 -3.17,-0.9 l -4.62,-2.73 c -1.09,-0.64 -1.67,-1.46 -1.61,-2.24 v -2.81 a 1.64,1.64 0 0 1 0.95,-1.58 3.9,3.9 0 0 1 1.94,-0.48 6.41,6.41 0 0 1 3.15,0.89 l 4.62,2.74 a 2.92,2.92 0 0 1 1.61,2 v 3.26 a 1.66,1.66 0 0 1 -0.95,1.38 3.56,3.56 0 0 1 -1.92,0.49 z"
         fill="#fff"
         id="path146" />
      <path
         inkscape:connector-curvature="0"
         d="m 412.83,44.92 a 6,6 0 0 1 2.92,0.82 l 4.62,2.74 c 0.81,0.48 1.38,1.1 1.38,1.69 V 50 53.24 a 1.28,1.28 0 0 1 -0.72,1 3.38,3.38 0 0 1 -1.69,0.4 6.12,6.12 0 0 1 -2.92,-0.81 l -4.62,-2.74 c -0.85,-0.51 -1.43,-1.17 -1.38,-1.79 v -2.85 a 1.2,1.2 0 0 1 0.7,-1.13 3.63,3.63 0 0 1 1.71,-0.41 m 0,-1 a 4.42,4.42 0 0 0 -2.19,0.55 2.11,2.11 0 0 0 -1.19,2 v 2.77 a 3.08,3.08 0 0 0 1.85,2.66 l 4.62,2.74 a 7,7 0 0 0 3.4,0.95 4.21,4.21 0 0 0 2.19,-0.54 2.16,2.16 0 0 0 1.19,-1.77 c 0,0 0,0 0,-3.26 a 3.32,3.32 0 0 0 -1.85,-2.39 l -4.62,-2.7 A 6.8,6.8 0 0 0 412.83,44 Z"
         fill="#7e868c"
         id="path148" />
      <path
         inkscape:connector-curvature="0"
         d="m 420.35,48.32 0.15,-0.25 -4.62,-2.74 a 6.34,6.34 0 0 0 -3.05,-0.85 3.68,3.68 0 0 0 -1.84,0.44 2,2 0 0 0 -0.64,0.57 1.1,1.1 0 0 0 -0.22,0.7 1.38,1.38 0 0 0 0.12,0.56 2.72,2.72 0 0 0 0.54,0.76 4.93,4.93 0 0 0 0.86,0.64 l 4.62,2.74 a 6.34,6.34 0 0 0 3.05,0.85 3.69,3.69 0 0 0 1.84,-0.45 1.86,1.86 0 0 0 0.64,-0.56 1.12,1.12 0 0 0 0.2,-0.73 1.34,1.34 0 0 0 -0.12,-0.56 2.42,2.42 0 0 0 -0.54,-0.76 4.47,4.47 0 0 0 -0.86,-0.64 l -0.15,0.25 -0.16,0.25 a 3.62,3.62 0 0 1 0.92,0.76 1.29,1.29 0 0 1 0.23,0.37 0.67,0.67 0 0 1 0,0.7 1.52,1.52 0 0 1 -0.45,0.39 3.12,3.12 0 0 1 -1.55,0.37 5.81,5.81 0 0 1 -2.76,-0.78 l -4.6,-2.74 a 3.06,3.06 0 0 1 -0.91,-0.76 1.12,1.12 0 0 1 -0.24,-0.36 0.89,0.89 0 0 1 -0.07,-0.33 0.68,0.68 0 0 1 0.11,-0.37 1.51,1.51 0 0 1 0.45,-0.39 3.14,3.14 0 0 1 1.55,-0.37 5.81,5.81 0 0 1 2.76,0.78 l 4.62,2.73 0.14,-0.25 z"
         fill="#7e868c"
         id="path150" />
      <path
         inkscape:connector-curvature="0"
         d="m 446.14,38.53 0.02,1.25 -1.5,0.93 -1.49,-0.82 v -1.24 l 1.65,-1.03 -0.16,-0.23 -0.15,0.25 0.15,-0.25 -0.15,-0.25 -1.93,1.2 v 1.9 l 2.1,1.15 2.06,-1.3 -0.02,-1.9 -2.08,-1.15 -0.13,0.1 0.15,0.25 -0.15,0.25 z"
         fill="#7e868c"
         id="path152" />
      <path
         inkscape:connector-curvature="0"
         d="m 447.19,36.13 1.49,0.81 v 1.22 l -1.49,0.96 -0.61,-0.33 -0.29,0.5 0.92,0.51 2.05,-1.31 v -1.9 l -2.09,-1.14 -2.06,1.28 v 0.97 h 0.58 v -0.64 z"
         fill="#7e868c"
         id="path154" />
      <path
         inkscape:connector-curvature="0"
         d="m 441.32,35.41 v 1.24 l -1.49,0.93 -1.48,-0.81 -0.02,-1.25 1.65,-1.03 -0.15,-0.23 -0.14,0.25 0.14,-0.25 -0.16,-0.25 -1.92,1.2 0.02,1.91 2.08,1.14 2.05,-1.3 v -1.9 l -2.09,-1.15 -0.14,0.1 0.16,0.25 -0.14,0.25 z"
         fill="#7e868c"
         id="path156" />
      <path
         inkscape:connector-curvature="0"
         d="m 442.37,33 1.48,0.81 v 1.25 l -1.5,0.93 -0.6,-0.33 -0.27,0.5 0.89,0.51 2.06,-1.3 v -1.9 l -2.08,-1.15 -2.06,1.3 v 0.95 h 0.59 v -0.64 z"
         fill="#7e868c"
         id="path158" />
      <path
         inkscape:connector-curvature="0"
         d="m 441.71,35.41 -0.21,-0.33 -1.6,1.03 -1.76,-0.92 -0.18,0.35 1.96,1.01 z"
         fill="#7e868c"
         id="path160" />
      <path
         inkscape:connector-curvature="0"
         d="m 444.24,33.87 -0.2,-0.33 -1.59,1.03 -1.79,-0.89 -0.17,0.35 1.98,0.99 z"
         fill="#7e868c"
         id="path162" />
      <path
         inkscape:connector-curvature="0"
         d="m 449.07,37 -0.21,-0.33 -1.6,1.03 -1.76,-0.89 -0.18,0.33 1.96,1.01 z"
         fill="#7e868c"
         id="path164" />
      <path
         inkscape:connector-curvature="0"
         d="m 446.55,38.59 -0.22,-0.33 -1.59,1.03 -1.77,-0.91 -0.17,0.35 1.96,1.01 z"
         fill="#7e868c"
         id="path166" />
      <path
         inkscape:connector-curvature="0"
         d="m 440.8,40.32 -0.14,-0.06 -13.24,-8.08 h -0.1 a 1.69,1.69 0 0 0 -1.38,0.25 l -8,5 a 3.84,3.84 0 0 0 -1.73,2.83 1.22,1.22 0 0 0 0.37,0.94 L 430,49.33 h 0.06 a 1.4,1.4 0 0 0 1.34,-0.12 l 1.34,0.84 0.07,-0.14 5.17,-3.2 v -0.1 a 5.89,5.89 0 0 1 1.46,-2.43 h 0.05 a 3.82,3.82 0 0 0 1.71,-2.82 1,1 0 0 0 -0.48,-1 z"
         fill="#fff"
         id="path168" />
      <path
         inkscape:connector-curvature="0"
         d="m 440.8,40.32 0.23,-0.43 -0.21,-0.09 -0.18,0.44 0.25,-0.4 -13.28,-8.1 -0.12,-0.06 a 1.78,1.78 0 0 0 -0.55,-0.1 2.54,2.54 0 0 0 -1.24,0.39 l -7.94,5 a 4.32,4.32 0 0 0 -1.38,1.44 4,4 0 0 0 -0.41,0.89 3,3 0 0 0 -0.16,0.91 1.68,1.68 0 0 0 0.14,0.72 1.45,1.45 0 0 0 0.41,0.58 l 13.87,8.49 0.26,-0.43 -0.41,-0.25 -0.27,0.41 c 0,0 0,0 0.07,0.06 a 1.54,1.54 0 0 0 0.74,0.19 2.24,2.24 0 0 0 1.05,-0.29 l -0.23,-0.43 -0.26,0.41 1.75,1.11 0.29,-0.45 5.21,-3.22 0.1,-0.25 a 8.84,8.84 0 0 1 0.52,-1.21 3.66,3.66 0 0 1 0.39,-0.62 1.4,1.4 0 0 1 0.35,-0.35 l 0.07,-0.06 -0.29,-0.39 0.26,0.41 a 4.58,4.58 0 0 0 1.36,-1.44 3.92,3.92 0 0 0 0.4,-0.89 2.91,2.91 0 0 0 0.16,-0.91 1.79,1.79 0 0 0 -0.2,-0.86 1.64,1.64 0 0 0 -0.58,-0.62 l -0.19,0.39 -0.24,0.43 a 0.51,0.51 0 0 1 0.2,0.21 0.79,0.79 0 0 1 0.08,0.41 1.77,1.77 0 0 1 -0.12,0.6 4.13,4.13 0 0 1 -0.54,1 3.41,3.41 0 0 1 -0.84,0.78 l -0.08,0.06 0.3,0.38 -0.26,-0.4 a 2.63,2.63 0 0 0 -0.6,0.6 7.66,7.66 0 0 0 -0.66,1.14 c -0.17,0.39 -0.31,0.72 -0.39,1 v 0.09 l 0.47,0.16 -0.25,-0.41 -5.27,3.26 -0.15,0.24 0.41,0.25 0.25,-0.41 -1.59,-1 -0.26,0.14 a 1.49,1.49 0 0 1 -0.6,0.17 0.57,0.57 0 0 1 -0.27,-0.06 l -0.1,0.18 0.12,-0.18 -0.1,0.18 0.12,-0.18 -0.43,-0.27 -13,-7.92 -0.25,0.41 0.31,-0.37 a 0.47,0.47 0 0 1 -0.14,-0.22 1.18,1.18 0 0 1 0,-0.37 2.32,2.32 0 0 1 0.11,-0.62 4.31,4.31 0 0 1 0.55,-1 3,3 0 0 1 0.83,-0.77 l 8,-5 a 1.49,1.49 0 0 1 0.74,-0.26 0.72,0.72 0 0 1 0.22,0 l 0.17,-0.44 -0.19,0.44 h 0.05 l 13.25,8.08 h 0.06 l 0.27,-0.39 z"
         fill="#7e868c"
         id="path170" />
      <path
         inkscape:connector-curvature="0"
         d="m 421.59,43.64 -2.1,1.21 a 2,2 0 0 1 -0.95,0.23 2.2,2.2 0 0 1 -0.93,-0.21 0.49,0.49 0 0 1 -0.23,-0.22 0.41,0.41 0 0 1 -0.06,-0.19 0.24,0.24 0 0 1 0.08,-0.18 0.79,0.79 0 0 1 0.25,-0.21 l 2,-1.28 -0.31,-0.49 -2,1.26 0.15,0.26 -0.15,-0.26 a 1.41,1.41 0 0 0 -0.43,0.37 0.74,0.74 0 0 0 -0.17,0.53 0.81,0.81 0 0 0 0.17,0.52 1.48,1.48 0 0 0 0.68,0.51 2.68,2.68 0 0 0 2.19,-0.14 l -0.15,-0.25 0.14,0.25 2.09,-1.18 z"
         fill="#7e868c"
         id="path172" />
      <path
         inkscape:connector-curvature="0"
         d="M 425.05,45.66 423,46.87 a 2,2 0 0 1 -0.95,0.23 2.06,2.06 0 0 1 -0.93,-0.22 0.46,0.46 0 0 1 -0.24,-0.21 0.38,0.38 0 0 1 -0.05,-0.19 0.23,0.23 0 0 1 0.07,-0.18 1,1 0 0 1 0.26,-0.21 l 2,-1.28 -0.31,-0.49 -2,1.26 0.16,0.26 -0.16,-0.26 a 1.37,1.37 0 0 0 -0.42,0.37 0.75,0.75 0 0 0 -0.18,0.53 0.82,0.82 0 0 0 0.18,0.52 1.43,1.43 0 0 0 0.68,0.51 2.55,2.55 0 0 0 0.95,0.17 2.62,2.62 0 0 0 1.24,-0.31 l -0.15,-0.25 0.13,0.25 2.1,-1.18 -0.27,-0.53 z"
         fill="#7e868c"
         id="path174" />
      <path
         inkscape:connector-curvature="0"
         d="m 428.37,47.72 -2.1,1.2 a 1.85,1.85 0 0 1 -0.95,0.24 2.06,2.06 0 0 1 -0.93,-0.22 0.46,0.46 0 0 1 -0.24,-0.21 0.59,0.59 0 0 1 0,-0.19 0.27,0.27 0 0 1 0.07,-0.18 0.82,0.82 0 0 1 0.26,-0.21 l 2,-1.28 -0.31,-0.49 -2,1.26 0.15,0.25 -0.13,-0.25 a 1.3,1.3 0 0 0 -0.43,0.37 0.75,0.75 0 0 0 -0.18,0.53 0.84,0.84 0 0 0 0.18,0.52 1.35,1.35 0 0 0 0.68,0.5 2.37,2.37 0 0 0 0.95,0.18 2.59,2.59 0 0 0 1.24,-0.31 l -0.15,-0.25 0.13,0.25 2.1,-1.19 -0.29,-0.52 z"
         fill="#7e868c"
         id="path176" />
      <path
         inkscape:connector-curvature="0"
         d="m 429.38,36.48 5.75,3.52 a 0.69,0.69 0 0 1 0.15,0.14 0.23,0.23 0 0 1 0,0.09 0.13,0.13 0 0 1 0,0.1 0.51,0.51 0 0 1 -0.25,0.18 1.47,1.47 0 0 1 -0.49,0.09 1.15,1.15 0 0 1 -0.62,-0.15 l -0.15,0.25 0.15,-0.25 -5.71,-3.63 a 3.43,3.43 0 0 0 -1.76,-0.45 3.33,3.33 0 0 0 -1.77,0.45 1.81,1.81 0 0 0 -0.58,0.52 1.23,1.23 0 0 0 -0.24,0.7 1.16,1.16 0 0 0 0.24,0.7 1.71,1.71 0 0 0 0.56,0.5 l 0.15,-0.25 -0.15,0.25 4.34,2.76 1.28,0.78 a 0.56,0.56 0 0 1 0.16,0.13 0.34,0.34 0 0 1 0,0.1 0.13,0.13 0 0 1 0,0.1 0.53,0.53 0 0 1 -0.26,0.17 1.21,1.21 0 0 1 -0.48,0.1 1,1 0 0 1 -0.62,-0.16 l -0.16,0.26 0.16,-0.26 -5.62,-3.55 -0.31,0.49 5.6,3.51 a 1.69,1.69 0 0 0 0.93,0.23 1.67,1.67 0 0 0 0.91,-0.23 1.07,1.07 0 0 0 0.31,-0.29 0.79,0.79 0 0 0 0.14,-0.43 0.81,0.81 0 0 0 -0.14,-0.43 1,1 0 0 0 -0.33,-0.29 L 429.29,41.46 425,38.71 a 1.23,1.23 0 0 1 -0.39,-0.35 0.62,0.62 0 0 1 -0.11,-0.37 0.71,0.71 0 0 1 0.11,-0.37 1.73,1.73 0 0 1 0.7,-0.5 3,3 0 0 1 1.17,-0.22 2.9,2.9 0 0 1 1.45,0.37 L 428,37 l -0.16,0.25 5.71,3.61 a 1.74,1.74 0 0 0 0.93,0.24 1.7,1.7 0 0 0 0.92,-0.24 1.06,1.06 0 0 0 0.31,-0.29 0.75,0.75 0 0 0 0.13,-0.42 0.75,0.75 0 0 0 -0.13,-0.43 0.92,0.92 0 0 0 -0.33,-0.29 l -0.16,0.25 0.16,-0.25 -5.75,-3.54 -0.29,0.57 z"
         fill="#7e868c"
         id="path178" />
      <path
         inkscape:connector-curvature="0"
         d="m 437.83,46.55 0.27,0.1 c 0,-0.09 0.23,-0.6 0.5,-1.14 a 3.77,3.77 0 0 1 0.47,-0.76 2.2,2.2 0 0 1 0.5,-0.51 h 0.06 l -0.17,-0.24 0.15,0.25 a 3.84,3.84 0 0 0 1.21,-1.26 3.06,3.06 0 0 0 0.5,-1.57 1.36,1.36 0 0 0 -0.27,-0.84 1,1 0 0 0 -0.35,-0.25 1,1 0 0 0 -0.43,-0.08 2,2 0 0 0 -1,0.33 l -8,4.94 a 3.81,3.81 0 0 0 -1.2,1.26 3.07,3.07 0 0 0 -0.51,1.57 1.36,1.36 0 0 0 0.27,0.84 1.07,1.07 0 0 0 0.35,0.25 1,1 0 0 0 0.43,0.08 2,2 0 0 0 1,-0.33 l -0.15,-0.25 0.13,0.25 0.1,-0.06 a 1.21,1.21 0 0 1 0.68,-0.23 0.53,0.53 0 0 1 0.19,0 0.27,0.27 0 0 1 0.18,0.17 0.9,0.9 0 0 1 0.07,0.39 V 50 l 5.21,-3.22 v -0.1 l -0.27,-0.1 -0.16,-0.25 -4.59,2.87 0.16,0.25 h 0.29 a 1.36,1.36 0 0 0 -0.27,-0.84 1.07,1.07 0 0 0 -0.35,-0.25 1.06,1.06 0 0 0 -0.43,-0.08 2,2 0 0 0 -1,0.33 l 0.15,0.26 -0.13,-0.26 -0.1,0.06 a 1.21,1.21 0 0 1 -0.68,0.23 0.5,0.5 0 0 1 -0.19,0 0.32,0.32 0 0 1 -0.18,-0.18 0.88,0.88 0 0 1 -0.08,-0.39 2.59,2.59 0 0 1 0.43,-1.26 3.41,3.41 0 0 1 1,-1.07 l 8,-5 a 1.32,1.32 0 0 1 0.68,-0.23 0.59,0.59 0 0 1 0.2,0 0.31,0.31 0 0 1 0.17,0.17 0.88,0.88 0 0 1 0.08,0.39 2.59,2.59 0 0 1 -0.43,1.26 3.3,3.3 0 0 1 -1,1.07 h -0.06 l 0.18,0.23 -0.16,-0.25 a 2.83,2.83 0 0 0 -0.7,0.72 7.18,7.18 0 0 0 -0.71,1.32 7,7 0 0 0 -0.28,0.7 l 0.28,0.09 -0.16,-0.25 0.16,0.25 z"
         fill="#7e868c"
         id="path180" />
      <path
         inkscape:connector-curvature="0"
         d="M 440.91,40.4 427.4,32.15 h -0.08 l -0.1,0.27 0.1,-0.27 a 1.23,1.23 0 0 0 -0.39,-0.06 1.88,1.88 0 0 0 -1,0.33 l -8,5 a 3.91,3.91 0 0 0 -1.2,1.26 3,3 0 0 0 -0.51,1.57 1.47,1.47 0 0 0 0.1,0.53 1,1 0 0 0 0.29,0.41 l 13.42,8.17 0.31,-0.5 -13.34,-8.19 -0.16,0.25 0.2,-0.21 a 0.7,0.7 0 0 1 -0.12,-0.18 0.68,0.68 0 0 1 -0.06,-0.31 2.59,2.59 0 0 1 0.43,-1.26 3.41,3.41 0 0 1 1,-1.07 l 8,-5 a 1.32,1.32 0 0 1 0.68,-0.23 0.4,0.4 0 0 1 0.18,0 l 13.47,8.21 0.29,-0.5 z"
         fill="#7e868c"
         id="path182" />
      <path
         inkscape:connector-curvature="0"
         d="m 431.32,49.16 1.5,0.93 0.31,-0.51 -1.5,-0.93"
         fill="#7e868c"
         id="path184" />
      <path
         inkscape:connector-curvature="0"
         d="m 434.99,45.16 2.66,1.63 0.31,-0.51 -2.66,-1.61"
         fill="#7e868c"
         id="path186" />
      <path
         inkscape:connector-curvature="0"
         d="m 431.77,46.63 v -0.89 h -0.58 v 1.94 l 7.57,-4.64 v -1.67 h -0.58 v 1.34 z"
         fill="#7e868c"
         id="path188" />
      <path
         inkscape:connector-curvature="0"
         d="m 414.83,37.95 -12.54,7.44 -12.55,-7.44 v -2.52 l 12.57,-7.58 12.52,7.36 z"
         fill="#fff"
         id="path190" />
      <path
         inkscape:connector-curvature="0"
         d="m 414.35,35.51 v 2.15 l -12.06,7.17 -12.06,-7.17 V 35.7 l 12.33,-7.44 -0.25,-0.41 -0.25,0.41 0.25,-0.41 -0.25,-0.4 -12.8,7.71 v 3.06 l 13.03,7.73 13.03,-7.73 v -3.28 l -13.03,-7.65 -0.23,0.16 0.25,0.4 -0.25,0.41 z"
         fill="#7e868c"
         id="path192" />
      <path
         inkscape:connector-curvature="0"
         d="m 402.29,42.9 12.7,-7.43 -0.31,-0.51 -12.39,7.28 -3.27,-1.84 -9.12,-5.23 -0.29,0.51 9.14,5.22 z"
         fill="#7e868c"
         id="path194" />
      <path
         inkscape:connector-curvature="0"
         d="m 426.33,26.8 -9.21,5.48 -9.18,-5.48 v -1.82 l 9.2,-5.57 9.19,5.41 z"
         fill="#fff"
         id="path196" />
      <path
         inkscape:connector-curvature="0"
         d="m 425.84,25.1 v 1.43 l -8.72,5.19 -8.7,-5.19 v -1.28 l 8.98,-5.42 -0.26,-0.42 -0.25,0.42 0.25,-0.42 -0.25,-0.41 -9.44,5.69 v 2.41 l 9.67,5.74 9.69,-5.74 v -2.57 l -9.67,-5.69 -0.25,0.16 0.25,0.41 -0.25,0.42 z"
         fill="#7e868c"
         id="path198" />
      <path
         inkscape:connector-curvature="0"
         d="m 417.14,30.55 9.35,-5.47 -0.32,-0.51 -9.05,5.3 -2.35,-1.32 -6.7,-3.82 -0.29,0.5 6.72,3.83 z"
         fill="#7e868c"
         id="path200" />
      <path
         inkscape:connector-curvature="0"
         d="m 414.41,23.29 h 0.29 a 1,1 0 0 1 0.15,-0.47 2,2 0 0 1 0.86,-0.6 3.93,3.93 0 0 1 1.4,-0.25 3.41,3.41 0 0 1 1.74,0.43 1.49,1.49 0 0 1 0.49,0.42 0.79,0.79 0 0 1 0.15,0.47 v 1.15 a 0.84,0.84 0 0 1 -0.15,0.46 1.88,1.88 0 0 1 -0.86,0.6 3.66,3.66 0 0 1 -1.39,0.26 3.56,3.56 0 0 1 -1.75,-0.43 1.51,1.51 0 0 1 -0.49,-0.43 0.76,0.76 0 0 1 -0.15,-0.46 v -1.15 h -0.59 v 1.15 a 1.27,1.27 0 0 0 0.28,0.79 2.59,2.59 0 0 0 1.1,0.82 4.37,4.37 0 0 0 1.62,0.29 4,4 0 0 0 2.05,-0.53 1.75,1.75 0 0 0 0.66,-0.6 1.27,1.27 0 0 0 0.28,-0.79 v -1.15 a 1.32,1.32 0 0 0 -0.28,-0.8 2.5,2.5 0 0 0 -1.1,-0.81 4.16,4.16 0 0 0 -1.61,-0.29 4,4 0 0 0 -2.06,0.52 1.93,1.93 0 0 0 -0.66,0.6 1.32,1.32 0 0 0 -0.28,0.8 z"
         fill="#7e868c"
         id="path202" />
      <path
         inkscape:connector-curvature="0"
         d="m 419.51,23 a 3.58,3.58 0 0 1 1.3,0.85 1.54,1.54 0 0 1 0.45,1.07 1.64,1.64 0 0 1 -0.29,0.88 3.47,3.47 0 0 1 -1.48,1.06 6.26,6.26 0 0 1 -2.37,0.43 6,6 0 0 1 -3,-0.74 2.89,2.89 0 0 1 -0.85,-0.75 1.48,1.48 0 0 1 0.17,-2 3.79,3.79 0 0 1 1.32,-0.87 l -0.21,-0.54 a 4.35,4.35 0 0 0 -1.53,1 2.08,2.08 0 0 0 -0.62,1.45 2.16,2.16 0 0 0 0.4,1.21 3.77,3.77 0 0 0 1.75,1.26 6.82,6.82 0 0 0 2.58,0.46 6.59,6.59 0 0 0 3.29,-0.81 3.24,3.24 0 0 0 1,-0.93 2.05,2.05 0 0 0 0.41,-1.21 2.15,2.15 0 0 0 -0.6,-1.45 4.09,4.09 0 0 0 -1.51,-1 l -0.26,0.58 z"
         fill="#7e868c"
         id="path204" />
      <g
         fill="#333e48"
         id="g238">
        <path
           inkscape:connector-curvature="0"
           d="m 374.42,82.09 a 4.87,4.87 0 0 1 -0.31,1.79 3.88,3.88 0 0 1 -2.24,2.27 4.8,4.8 0 0 1 -1.77,0.31 h -3.26 v -8.75 h 3.26 a 4.81,4.81 0 0 1 1.77,0.32 3.83,3.83 0 0 1 1.36,0.89 3.93,3.93 0 0 1 0.88,1.38 4.87,4.87 0 0 1 0.31,1.79 z m -1.21,0 a 4.54,4.54 0 0 0 -0.22,-1.44 3.2,3.2 0 0 0 -0.63,-1.08 2.76,2.76 0 0 0 -1,-0.67 3.53,3.53 0 0 0 -1.29,-0.23 H 368 v 6.83 h 2.08 a 3.33,3.33 0 0 0 1.29,-0.23 2.64,2.64 0 0 0 1,-0.67 3,3 0 0 0 0.63,-1.07 4.54,4.54 0 0 0 0.21,-1.44 z"
           id="path206" />
        <path
           inkscape:connector-curvature="0"
           d="m 380.8,85.6 a 2,2 0 0 1 -0.48,0.42 3.36,3.36 0 0 1 -0.6,0.3 4.91,4.91 0 0 1 -0.66,0.17 4,4 0 0 1 -0.68,0.06 3,3 0 0 1 -1.18,-0.22 2.51,2.51 0 0 1 -0.94,-0.63 3,3 0 0 1 -0.61,-1 4.11,4.11 0 0 1 -0.22,-1.42 3.36,3.36 0 0 1 0.2,-1.2 2.81,2.81 0 0 1 0.57,-1 2.74,2.74 0 0 1 0.91,-0.65 3.11,3.11 0 0 1 1.21,-0.23 2.9,2.9 0 0 1 1,0.18 2.5,2.5 0 0 1 0.81,0.54 2.75,2.75 0 0 1 0.55,0.87 3.32,3.32 0 0 1 0.22,1.21 0.83,0.83 0 0 1 0,0.34 0.26,0.26 0 0 1 -0.21,0.08 h -4.19 a 3.74,3.74 0 0 0 0.17,1 1.91,1.91 0 0 0 0.4,0.73 1.65,1.65 0 0 0 0.61,0.43 2,2 0 0 0 0.79,0.14 2.5,2.5 0 0 0 0.71,-0.09 3,3 0 0 0 0.51,-0.21 l 0.35,-0.2 a 0.54,0.54 0 0 1 0.25,-0.1 0.25,0.25 0 0 1 0.21,0.11 z m -0.88,-2.91 a 2.17,2.17 0 0 0 -0.1,-0.69 1.59,1.59 0 0 0 -0.31,-0.54 1.64,1.64 0 0 0 -0.5,-0.36 1.78,1.78 0 0 0 -0.67,-0.12 1.66,1.66 0 0 0 -1.23,0.45 2.11,2.11 0 0 0 -0.57,1.26 z"
           id="path208" />
        <path
           inkscape:connector-curvature="0"
           d="m 387.4,80.28 -2.52,6.18 h -1 l -2.52,-6.18 h 0.88 a 0.33,0.33 0 0 1 0.34,0.22 l 1.57,4 0.13,0.44 c 0,0.15 0.07,0.29 0.1,0.43 0,-0.14 0.07,-0.28 0.1,-0.43 0.03,-0.15 0.09,-0.28 0.14,-0.44 l 1.59,-4 a 0.31,0.31 0 0 1 0.12,-0.16 0.34,0.34 0 0 1 0.2,-0.06 z"
           id="path210" />
        <path
           inkscape:connector-curvature="0"
           d="m 393.25,85.6 a 2.16,2.16 0 0 1 -0.48,0.42 3.36,3.36 0 0 1 -0.6,0.3 5.06,5.06 0 0 1 -0.67,0.17 3.79,3.79 0 0 1 -0.67,0.06 3.07,3.07 0 0 1 -1.19,-0.22 2.48,2.48 0 0 1 -0.93,-0.63 3.06,3.06 0 0 1 -0.62,-1 4.38,4.38 0 0 1 -0.21,-1.42 3.59,3.59 0 0 1 0.19,-1.2 3.16,3.16 0 0 1 0.57,-1 2.85,2.85 0 0 1 0.91,-0.65 3.14,3.14 0 0 1 1.21,-0.23 2.86,2.86 0 0 1 1,0.18 2.44,2.44 0 0 1 0.82,0.54 2.56,2.56 0 0 1 0.54,0.87 3.32,3.32 0 0 1 0.2,1.18 0.66,0.66 0 0 1 -0.06,0.34 0.23,0.23 0 0 1 -0.21,0.08 H 389 a 3.76,3.76 0 0 0 0.16,1 2.22,2.22 0 0 0 0.4,0.73 1.74,1.74 0 0 0 0.61,0.43 2,2 0 0 0 0.8,0.14 2.4,2.4 0 0 0 1.21,-0.3 l 0.36,-0.2 a 0.54,0.54 0 0 1 0.25,-0.1 0.22,0.22 0 0 1 0.2,0.11 z m -0.88,-2.91 a 2.17,2.17 0 0 0 -0.11,-0.69 1.44,1.44 0 0 0 -0.31,-0.54 1.43,1.43 0 0 0 -0.5,-0.36 1.91,1.91 0 0 0 -1.9,0.33 2.17,2.17 0 0 0 -0.56,1.26 z"
           id="path212" />
        <path
           inkscape:connector-curvature="0"
           d="m 395.8,77.47 v 9 h -1.08 v -9 z"
           id="path214" />
        <path
           inkscape:connector-curvature="0"
           d="m 400.17,80.18 a 3.16,3.16 0 0 1 1.22,0.22 2.65,2.65 0 0 1 0.93,0.65 2.76,2.76 0 0 1 0.59,1 4.46,4.46 0 0 1 0,2.64 2.85,2.85 0 0 1 -0.59,1 2.76,2.76 0 0 1 -0.93,0.64 3.52,3.52 0 0 1 -2.45,0 2.58,2.58 0 0 1 -0.93,-0.64 2.71,2.71 0 0 1 -0.59,-1 4.25,4.25 0 0 1 0,-2.64 2.63,2.63 0 0 1 0.59,-1 2.48,2.48 0 0 1 0.93,-0.65 3.17,3.17 0 0 1 1.23,-0.22 z m 0,5.52 a 1.59,1.59 0 0 0 1.37,-0.61 3.51,3.51 0 0 0 0,-3.44 1.59,1.59 0 0 0 -1.37,-0.62 2,2 0 0 0 -0.81,0.16 1.51,1.51 0 0 0 -0.57,0.46 2,2 0 0 0 -0.35,0.74 4.2,4.2 0 0 0 -0.11,1 2.79,2.79 0 0 0 0.46,1.72 1.59,1.59 0 0 0 1.38,0.59 z"
           id="path216" />
        <path
           inkscape:connector-curvature="0"
           d="m 405.52,81.23 a 3.49,3.49 0 0 1 0.91,-0.77 2.26,2.26 0 0 1 1.17,-0.29 2.19,2.19 0 0 1 1,0.2 2,2 0 0 1 0.74,0.61 2.85,2.85 0 0 1 0.47,1 5.05,5.05 0 0 1 0.17,1.36 4,4 0 0 1 -0.19,1.27 2.9,2.9 0 0 1 -0.53,1 2.32,2.32 0 0 1 -0.84,0.68 2.4,2.4 0 0 1 -1.12,0.25 2.12,2.12 0 0 1 -1.69,-0.73 v 2.74 h -1.09 v -8.27 h 0.65 a 0.27,0.27 0 0 1 0.29,0.22 z m 0.06,3.74 a 1.8,1.8 0 0 0 0.65,0.57 1.88,1.88 0 0 0 0.8,0.17 1.57,1.57 0 0 0 1.33,-0.62 2.88,2.88 0 0 0 0.46,-1.76 4.53,4.53 0 0 0 -0.1,-1 2.34,2.34 0 0 0 -0.31,-0.71 1.31,1.31 0 0 0 -0.5,-0.41 1.69,1.69 0 0 0 -0.66,-0.12 1.74,1.74 0 0 0 -0.93,0.24 2.52,2.52 0 0 0 -0.74,0.69 z"
           id="path218" />
        <path
           inkscape:connector-curvature="0"
           d="M 411.33,86.46 V 80.28 H 412 a 0.26,0.26 0 0 1 0.28,0.22 l 0.08,0.64 a 3.32,3.32 0 0 1 0.77,-0.69 1.84,1.84 0 0 1 1,-0.27 1.41,1.41 0 0 1 1,0.35 1.89,1.89 0 0 1 0.56,0.94 2,2 0 0 1 0.35,-0.58 1.83,1.83 0 0 1 0.47,-0.41 2.13,2.13 0 0 1 0.56,-0.23 2.46,2.46 0 0 1 0.6,-0.07 2.33,2.33 0 0 1 0.87,0.15 1.88,1.88 0 0 1 0.65,0.46 2,2 0 0 1 0.4,0.74 3,3 0 0 1 0.14,1 v 3.94 h -1.09 v -3.95 a 1.68,1.68 0 0 0 -0.32,-1.1 1.11,1.11 0 0 0 -0.91,-0.37 1.44,1.44 0 0 0 -0.51,0.09 1.23,1.23 0 0 0 -0.43,0.28 1.25,1.25 0 0 0 -0.29,0.46 1.79,1.79 0 0 0 -0.1,0.64 v 3.94 H 415 v -3.94 a 1.75,1.75 0 0 0 -0.3,-1.11 1.07,1.07 0 0 0 -0.87,-0.36 1.36,1.36 0 0 0 -0.74,0.21 2.49,2.49 0 0 0 -0.63,0.59 v 4.61 z"
           id="path220" />
        <path
           inkscape:connector-curvature="0"
           d="m 426.4,85.6 a 2.16,2.16 0 0 1 -0.48,0.42 3.36,3.36 0 0 1 -0.6,0.3 5.06,5.06 0 0 1 -0.67,0.17 3.91,3.91 0 0 1 -0.68,0.06 3.06,3.06 0 0 1 -1.18,-0.22 2.48,2.48 0 0 1 -0.93,-0.63 3.06,3.06 0 0 1 -0.62,-1 4.38,4.38 0 0 1 -0.21,-1.42 3.59,3.59 0 0 1 0.19,-1.2 3.16,3.16 0 0 1 0.57,-1 2.85,2.85 0 0 1 0.91,-0.65 3.14,3.14 0 0 1 1.21,-0.23 2.86,2.86 0 0 1 1,0.18 2.44,2.44 0 0 1 0.82,0.54 2.56,2.56 0 0 1 0.54,0.87 3.32,3.32 0 0 1 0.2,1.18 0.66,0.66 0 0 1 -0.06,0.34 0.23,0.23 0 0 1 -0.21,0.08 h -4.1 a 3.76,3.76 0 0 0 0.16,1 2.22,2.22 0 0 0 0.4,0.73 1.74,1.74 0 0 0 0.61,0.43 2,2 0 0 0 0.8,0.14 2.4,2.4 0 0 0 1.21,-0.3 l 0.36,-0.2 a 0.5,0.5 0 0 1 0.25,-0.1 0.22,0.22 0 0 1 0.2,0.11 z m -0.88,-2.91 a 2.17,2.17 0 0 0 -0.11,-0.69 1.44,1.44 0 0 0 -0.31,-0.54 1.53,1.53 0 0 0 -0.5,-0.36 1.91,1.91 0 0 0 -1.9,0.33 2.17,2.17 0 0 0 -0.56,1.26 z"
           id="path222" />
        <path
           inkscape:connector-curvature="0"
           d="m 428.85,81.17 a 4,4 0 0 1 0.43,-0.4 2.48,2.48 0 0 1 1,-0.52 2.37,2.37 0 0 1 0.61,-0.07 2.13,2.13 0 0 1 0.9,0.17 1.69,1.69 0 0 1 0.64,0.47 2.12,2.12 0 0 1 0.4,0.74 3.23,3.23 0 0 1 0.13,1 v 3.94 h -1.09 v -3.98 a 1.7,1.7 0 0 0 -0.32,-1.09 1.22,1.22 0 0 0 -1,-0.38 1.77,1.77 0 0 0 -0.9,0.23 3,3 0 0 0 -0.77,0.63 v 4.55 h -1.09 v -6.18 h 0.65 a 0.27,0.27 0 0 1 0.29,0.22 z"
           id="path224" />
        <path
           inkscape:connector-curvature="0"
           d="m 436.46,86.56 a 1.5,1.5 0 0 1 -1.13,-0.41 1.63,1.63 0 0 1 -0.39,-1.18 v -3.78 h -0.75 A 0.23,0.23 0 0 1 434.03,81.13 0.21,0.21 0 0 1 434,81 v -0.44 l 1,-0.12 0.25,-1.92 a 0.23,0.23 0 0 1 0.09,-0.14 0.23,0.23 0 0 1 0.16,-0.06 h 0.5 v 2.08 h 1.79 v 0.79 H 436 v 3.71 a 0.82,0.82 0 0 0 0.19,0.58 0.66,0.66 0 0 0 0.49,0.19 0.9,0.9 0 0 0 0.3,0 l 0.22,-0.1 0.15,-0.1 a 0.19,0.19 0 0 1 0.11,0 0.19,0.19 0 0 1 0.16,0.1 L 438,86 a 2,2 0 0 1 -0.67,0.41 2.33,2.33 0 0 1 -0.87,0.15 z"
           id="path226" />
        <path
           inkscape:connector-curvature="0"
           d="m 445.11,77.71 a 5.16,5.16 0 0 1 1.39,0.16 2.85,2.85 0 0 1 1,0.45 1.83,1.83 0 0 1 0.5,0.68 2.42,2.42 0 0 1 0.18,1 1.87,1.87 0 0 1 -0.1,0.62 2.11,2.11 0 0 1 -0.3,0.55 2.53,2.53 0 0 1 -0.51,0.46 2.57,2.57 0 0 1 -0.73,0.33 2.57,2.57 0 0 1 1.45,0.69 1.8,1.8 0 0 1 0.49,1.32 2.37,2.37 0 0 1 -0.21,1 2.08,2.08 0 0 1 -0.59,0.79 2.89,2.89 0 0 1 -1,0.51 4.37,4.37 0 0 1 -1.31,0.18 h -3.09 v -8.74 z m -1.61,0.94 v 3 h 1.56 a 2.79,2.79 0 0 0 0.87,-0.11 1.66,1.66 0 0 0 0.61,-0.3 1.22,1.22 0 0 0 0.36,-0.48 1.46,1.46 0 0 0 0.12,-0.6 1.35,1.35 0 0 0 -0.47,-1.14 2.35,2.35 0 0 0 -1.44,-0.35 z m 1.89,6.87 a 3.25,3.25 0 0 0 0.88,-0.11 1.73,1.73 0 0 0 0.6,-0.33 1.31,1.31 0 0 0 0.34,-0.5 1.66,1.66 0 0 0 0.11,-0.64 1.31,1.31 0 0 0 -0.48,-1.07 2.26,2.26 0 0 0 -1.45,-0.4 h -1.89 v 3 z"
           id="path228" />
        <path
           inkscape:connector-curvature="0"
           d="m 452.48,80.18 a 3.16,3.16 0 0 1 1.22,0.22 2.65,2.65 0 0 1 0.93,0.65 2.91,2.91 0 0 1 0.59,1 4.46,4.46 0 0 1 0,2.64 3,3 0 0 1 -0.59,1 2.76,2.76 0 0 1 -0.93,0.64 3.52,3.52 0 0 1 -2.45,0 2.71,2.71 0 0 1 -0.94,-0.64 2.83,2.83 0 0 1 -0.58,-1 4.25,4.25 0 0 1 0,-2.64 2.74,2.74 0 0 1 0.58,-1 2.6,2.6 0 0 1 0.94,-0.65 3.17,3.17 0 0 1 1.23,-0.22 z m 0,5.52 a 1.57,1.57 0 0 0 1.36,-0.61 3.45,3.45 0 0 0 0,-3.44 1.57,1.57 0 0 0 -1.36,-0.62 2,2 0 0 0 -0.81,0.16 1.62,1.62 0 0 0 -0.58,0.46 2.2,2.2 0 0 0 -0.34,0.74 4.2,4.2 0 0 0 -0.11,1 2.86,2.86 0 0 0 0.45,1.72 1.63,1.63 0 0 0 1.39,0.59 z"
           id="path230" />
        <path
           inkscape:connector-curvature="0"
           d="m 456.64,81.15 a 3.26,3.26 0 0 1 2.41,-1 2.27,2.27 0 0 1 0.93,0.17 1.8,1.8 0 0 1 0.67,0.47 1.93,1.93 0 0 1 0.42,0.74 3.22,3.22 0 0 1 0.14,1 v 3.95 h -0.48 a 0.44,0.44 0 0 1 -0.25,0 0.35,0.35 0 0 1 -0.13,-0.2 l -0.12,-0.59 c -0.17,0.15 -0.32,0.28 -0.48,0.4 a 2.43,2.43 0 0 1 -0.49,0.29 3.13,3.13 0 0 1 -0.54,0.19 3.27,3.27 0 0 1 -0.65,0.06 2.15,2.15 0 0 1 -0.68,-0.1 1.72,1.72 0 0 1 -0.55,-0.3 1.46,1.46 0 0 1 -0.37,-0.51 1.83,1.83 0 0 1 -0.14,-0.73 1.41,1.41 0 0 1 0.2,-0.71 1.86,1.86 0 0 1 0.66,-0.6 4.36,4.36 0 0 1 1.17,-0.43 8.76,8.76 0 0 1 1.79,-0.19 v -0.48 a 1.67,1.67 0 0 0 -0.31,-1.09 1.11,1.11 0 0 0 -0.91,-0.37 1.91,1.91 0 0 0 -0.68,0.1 2.28,2.28 0 0 0 -0.47,0.22 l -0.34,0.23 a 0.48,0.48 0 0 1 -0.29,0.1 0.28,0.28 0 0 1 -0.18,-0.06 0.62,0.62 0 0 1 -0.14,-0.14 z m 3.51,2.53 a 7.43,7.43 0 0 0 -1.28,0.12 3.6,3.6 0 0 0 -0.87,0.2 1.41,1.41 0 0 0 -0.49,0.36 0.79,0.79 0 0 0 -0.14,0.47 1.09,1.09 0 0 0 0.07,0.42 0.82,0.82 0 0 0 0.22,0.29 0.9,0.9 0 0 0 0.32,0.17 1.75,1.75 0 0 0 0.4,0 2.15,2.15 0 0 0 0.53,-0.06 2.2,2.2 0 0 0 0.45,-0.17 2.48,2.48 0 0 0 0.4,-0.26 3.09,3.09 0 0 0 0.38,-0.35 z"
           id="path232" />
        <path
           inkscape:connector-curvature="0"
           d="m 463.9,81.52 a 2.66,2.66 0 0 1 0.72,-1 1.75,1.75 0 0 1 1.42,-0.31 1.13,1.13 0 0 1 0.32,0.13 l -0.08,0.82 a 0.18,0.18 0 0 1 -0.18,0.15 1,1 0 0 1 -0.25,0 2.11,2.11 0 0 0 -0.38,0 1.42,1.42 0 0 0 -0.52,0.09 1.33,1.33 0 0 0 -0.41,0.25 1.72,1.72 0 0 0 -0.32,0.42 3.24,3.24 0 0 0 -0.26,0.56 v 3.91 h -1.09 v -6.26 h 0.62 a 0.35,0.35 0 0 1 0.24,0.06 0.38,0.38 0 0 1 0.09,0.24 z"
           id="path234" />
        <path
           inkscape:connector-curvature="0"
           d="m 472.19,77.47 v 9 h -0.65 a 0.27,0.27 0 0 1 -0.29,-0.22 l -0.1,-0.75 a 3.47,3.47 0 0 1 -0.9,0.77 2.36,2.36 0 0 1 -1.17,0.29 2.19,2.19 0 0 1 -1,-0.21 1.93,1.93 0 0 1 -0.74,-0.6 2.85,2.85 0 0 1 -0.47,-1 5.08,5.08 0 0 1 -0.16,-1.36 4.33,4.33 0 0 1 0.18,-1.27 3,3 0 0 1 0.53,-1 2.45,2.45 0 0 1 0.84,-0.68 2.52,2.52 0 0 1 1.12,-0.24 2.24,2.24 0 0 1 1,0.19 2.32,2.32 0 0 1 0.72,0.53 v -3.45 z m -1.09,4.28 a 1.74,1.74 0 0 0 -0.66,-0.57 1.83,1.83 0 0 0 -0.79,-0.16 1.54,1.54 0 0 0 -1.32,0.61 2.88,2.88 0 0 0 -0.47,1.76 4.48,4.48 0 0 0 0.11,1 1.88,1.88 0 0 0 0.3,0.7 1.1,1.1 0 0 0 0.5,0.41 1.53,1.53 0 0 0 0.66,0.13 1.72,1.72 0 0 0 0.94,-0.25 2.49,2.49 0 0 0 0.73,-0.69 z"
           id="path236" />
      </g>
      <path
         inkscape:connector-curvature="0"
         d="m 256.56918,33.8 a 0.65,0.65 0 0 1 -0.38,-0.11 l -4.4,-2.69 -4.4,2.67 a 0.73,0.73 0 0 1 -0.74,0 l -4.79,-2.67 -0.09,-0.07 -4.65,-2.74 a 0.73,0.73 0 0 1 -0.37,-0.63 v -5.5 a 0.71,0.71 0 0 1 0.37,-0.63 l 4.78,-2.75 a 0.81,0.81 0 0 1 0.74,0 l 4.48,2.68 4.56,-2.68 a 0.7,0.7 0 0 1 0.74,0 l 9.42,5.51 a 0.74,0.74 0 0 1 0.36,0.64 v 5.5 a 0.74,0.74 0 0 1 -0.37,0.63 l -4.94,2.76 a 0.86,0.86 0 0 1 -0.32,0.08 z"
         fill="#fff"
         id="path240" />
      <path
         inkscape:connector-curvature="0"
         d="m 246.66918,27.77 h 0.68 v 5.3 h -0.68 z"
         fill="#f7bc2f"
         id="path242" />
      <path
         inkscape:connector-curvature="0"
         d="m 251.43918,25.14 h 0.68 v 5.3 h -0.68 z"
         fill="#f7bc2f"
         id="path244" />
      <path
         inkscape:connector-curvature="0"
         d="m 256.24918,27.77 h 0.68 v 5.3 h -0.68 z"
         fill="#f7bc2f"
         id="path246" />
      <path
         inkscape:connector-curvature="0"
         d="m 246.95918,28.17 -9.69,-5.82 0.35,-0.58 9.34,5.61 4.82,-2.82 4.81,2.82 4.75,-2.84 0.34,0.58 -5.09,3.05 -4.81,-2.82 z"
         fill="#f7bc2f"
         id="path248" />
      <path
         inkscape:connector-curvature="0"
         d="m 252.21918,19.31 9.41,5.51 v 5.5 l -4.94,2.75 -4.78,-2.9 -4.79,2.9 -4.79,-2.75 -4.78,-2.75 v -5.5 l 4.78,-2.75 4.93,2.9 4.95,-2.9 m -9.88,-1.46 a 1.41,1.41 0 0 0 -0.72,0.19 l -4.79,2.75 a 1.47,1.47 0 0 0 -0.73,1.27 v 5.5 a 1.47,1.47 0 0 0 0.73,1.27 l 4.65,2.67 0.15,0.09 4.78,2.75 a 1.5,1.5 0 0 0 1.49,0 l 4,-2.44 4,2.44 a 1.46,1.46 0 0 0 1.47,0 l 4.93,-2.76 a 1.46,1.46 0 0 0 0.75,-1.27 v -5.5 a 1.47,1.47 0 0 0 -0.72,-1.26 l -9.42,-5.51 a 1.48,1.48 0 0 0 -1.47,0 l -4.2,2.47 -4.11,-2.47 a 1.44,1.44 0 0 0 -0.74,-0.2 z"
         fill="#f7bc2f"
         id="path250" />
      <path
         inkscape:connector-curvature="0"
         d="m 236.05918,45.69 h -0.61 a 0.24,0.24 0 0 1 -0.17,-0.06 0.26,0.26 0 0 1 -0.1,-0.13 l -0.55,-1.41 h -2.62 l -0.54,1.41 a 0.38,0.38 0 0 1 -0.09,0.13 0.28,0.28 0 0 1 -0.18,0.06 h -0.61 l 2.34,-5.84 h 0.79 z m -1.65,-2.17 -0.91,-2.37 a 2.3,2.3 0 0 1 -0.09,-0.25 2.17,2.17 0 0 1 -0.08,-0.3 4.45,4.45 0 0 1 -0.18,0.55 l -0.92,2.37 z"
         fill="#333e48"
         id="path252" />
      <path
         inkscape:connector-curvature="0"
         d="m 237.32918,42.2 a 2.39,2.39 0 0 1 0.6,-0.51 1.57,1.57 0 0 1 0.79,-0.2 1.47,1.47 0 0 1 0.64,0.14 1.29,1.29 0 0 1 0.5,0.4 2,2 0 0 1 0.31,0.66 3.54,3.54 0 0 1 0.11,0.91 2.91,2.91 0 0 1 -0.12,0.85 2.08,2.08 0 0 1 -0.35,0.68 1.78,1.78 0 0 1 -0.57,0.45 1.64,1.64 0 0 1 -0.74,0.16 1.57,1.57 0 0 1 -0.65,-0.12 1.68,1.68 0 0 1 -0.48,-0.36 v 1.82 h -0.73 v -5.52 h 0.48 a 0.18,0.18 0 0 1 0.19,0.15 z m 0,2.49 a 1.16,1.16 0 0 0 0.43,0.38 1.17,1.17 0 0 0 0.53,0.11 1,1 0 0 0 0.89,-0.41 1.87,1.87 0 0 0 0.31,-1.17 2.77,2.77 0 0 0 -0.07,-0.69 1.42,1.42 0 0 0 -0.21,-0.48 0.86,0.86 0 0 0 -0.33,-0.27 1,1 0 0 0 -0.44,-0.08 1.15,1.15 0 0 0 -0.62,0.16 1.76,1.76 0 0 0 -0.49,0.46 z"
         fill="#333e48"
         id="path254" />
      <path
         inkscape:connector-curvature="0"
         d="m 241.89918,42.2 a 2.09,2.09 0 0 1 0.6,-0.51 1.56,1.56 0 0 1 0.78,-0.2 1.51,1.51 0 0 1 0.65,0.14 1.33,1.33 0 0 1 0.49,0.4 1.84,1.84 0 0 1 0.31,0.66 3.15,3.15 0 0 1 0.11,0.91 2.91,2.91 0 0 1 -0.12,0.85 2.08,2.08 0 0 1 -0.35,0.68 1.61,1.61 0 0 1 -1.31,0.61 1.6,1.6 0 0 1 -0.65,-0.12 1.68,1.68 0 0 1 -0.48,-0.36 v 1.82 h -0.73 v -5.52 h 0.44 a 0.18,0.18 0 0 1 0.19,0.15 z m 0,2.49 a 1.18,1.18 0 0 0 0.44,0.38 1.14,1.14 0 0 0 0.53,0.11 1,1 0 0 0 0.89,-0.41 1.94,1.94 0 0 0 0.3,-1.17 2.77,2.77 0 0 0 -0.07,-0.69 1.24,1.24 0 0 0 -0.2,-0.48 0.86,0.86 0 0 0 -0.33,-0.27 1.06,1.06 0 0 0 -0.45,-0.08 1.17,1.17 0 0 0 -0.62,0.16 1.91,1.91 0 0 0 -0.49,0.46 z"
         fill="#333e48"
         id="path256" />
      <path
         inkscape:connector-curvature="0"
         d="m 246.51918,39.69 v 6 h -0.73 v -6 z"
         fill="#333e48"
         id="path258" />
      <path
         inkscape:connector-curvature="0"
         d="m 248.60918,40.27 a 0.45,0.45 0 0 1 0,0.2 0.61,0.61 0 0 1 -0.12,0.16 0.46,0.46 0 0 1 -0.16,0.11 0.52,0.52 0 0 1 -0.21,0 0.41,0.41 0 0 1 -0.19,0 0.46,0.46 0 0 1 -0.16,-0.11 0.42,0.42 0 0 1 -0.11,-0.16 0.52,0.52 0 0 1 0,-0.4 0.39,0.39 0 0 1 0.11,-0.17 0.46,0.46 0 0 1 0.16,-0.11 0.41,0.41 0 0 1 0.19,0 0.52,0.52 0 0 1 0.21,0 0.46,0.46 0 0 1 0.16,0.11 0.52,0.52 0 0 1 0.12,0.17 0.45,0.45 0 0 1 0,0.2 z m -0.15,1.29 v 4.13 h -0.73 v -4.13 z"
         fill="#333e48"
         id="path260" />
      <path
         inkscape:connector-curvature="0"
         d="m 252.50918,42.3 -0.06,0.07 h -0.09 a 0.24,0.24 0 0 1 -0.13,0 l -0.19,-0.11 -0.26,-0.12 a 1.42,1.42 0 0 0 -0.39,0 1.25,1.25 0 0 0 -0.53,0.11 1,1 0 0 0 -0.39,0.31 1.45,1.45 0 0 0 -0.24,0.5 2.49,2.49 0 0 0 -0.08,0.64 2.31,2.31 0 0 0 0.09,0.67 1.6,1.6 0 0 0 0.24,0.49 1,1 0 0 0 0.38,0.3 1.15,1.15 0 0 0 0.5,0.1 1.22,1.22 0 0 0 0.76,-0.26 l 0.18,-0.14 a 0.24,0.24 0 0 1 0.15,-0.06 0.15,0.15 0 0 1 0.14,0.07 l 0.2,0.26 a 1.32,1.32 0 0 1 -0.3,0.28 1.65,1.65 0 0 1 -0.37,0.2 2.77,2.77 0 0 1 -0.41,0.12 3.25,3.25 0 0 1 -0.44,0 1.71,1.71 0 0 1 -0.72,-0.14 1.66,1.66 0 0 1 -0.58,-0.41 1.89,1.89 0 0 1 -0.38,-0.67 2.74,2.74 0 0 1 -0.14,-0.9 2.61,2.61 0 0 1 0.13,-0.85 2.07,2.07 0 0 1 0.37,-0.67 1.68,1.68 0 0 1 0.61,-0.44 2,2 0 0 1 0.83,-0.16 1.86,1.86 0 0 1 0.77,0.14 1.76,1.76 0 0 1 0.59,0.4 z"
         fill="#333e48"
         id="path262" />
      <path
         inkscape:connector-curvature="0"
         d="m 253.42918,42.15 a 2.32,2.32 0 0 1 0.73,-0.5 2.3,2.3 0 0 1 0.88,-0.16 1.66,1.66 0 0 1 0.61,0.11 1.52,1.52 0 0 1 0.46,0.32 1.37,1.37 0 0 1 0.27,0.49 2.2,2.2 0 0 1 0.1,0.64 v 2.64 h -0.36 a 0.25,0.25 0 0 1 -0.16,0 0.22,0.22 0 0 1 -0.09,-0.13 l -0.08,-0.39 a 2.44,2.44 0 0 1 -0.32,0.26 2.14,2.14 0 0 1 -0.32,0.2 2.29,2.29 0 0 1 -0.37,0.12 1.91,1.91 0 0 1 -0.43,0 1.63,1.63 0 0 1 -0.45,-0.06 1.23,1.23 0 0 1 -0.37,-0.21 1.11,1.11 0 0 1 -0.25,-0.34 1.14,1.14 0 0 1 -0.09,-0.48 0.92,0.92 0 0 1 0.14,-0.47 1.12,1.12 0 0 1 0.43,-0.4 2.67,2.67 0 0 1 0.79,-0.29 5.53,5.53 0 0 1 1.19,-0.13 v -0.32 a 1.11,1.11 0 0 0 -0.21,-0.73 0.76,0.76 0 0 0 -0.61,-0.24 1.44,1.44 0 0 0 -0.45,0.06 l -0.31,0.15 -0.23,0.15 a 0.3,0.3 0 0 1 -0.19,0.07 0.16,0.16 0 0 1 -0.12,0 0.2,0.2 0 0 1 -0.09,-0.09 z m 2.34,1.68 a 6.32,6.32 0 0 0 -0.86,0.08 2.28,2.28 0 0 0 -0.57,0.17 0.68,0.68 0 0 0 -0.32,0.24 0.48,0.48 0 0 0 -0.1,0.31 0.82,0.82 0 0 0 0,0.28 0.7,0.7 0 0 0 0.15,0.19 0.53,0.53 0 0 0 0.21,0.11 1.12,1.12 0 0 0 0.27,0 1.9,1.9 0 0 0 0.35,0 l 0.3,-0.12 a 2,2 0 0 0 0.27,-0.17 l 0.25,-0.23 z"
         fill="#333e48"
         id="path264" />
      <path
         inkscape:connector-curvature="0"
         d="m 261.34918,45.69 h -0.72 v -3.52 h -2.13 v 2.48 a 0.53,0.53 0 0 0 0.13,0.38 0.42,0.42 0 0 0 0.33,0.13 0.54,0.54 0 0 0 0.19,0 l 0.15,-0.07 0.1,-0.07 a 0.13,0.13 0 0 1 0.08,0 0.15,0.15 0 0 1 0.1,0.07 l 0.21,0.35 a 1.2,1.2 0 0 1 -0.45,0.27 1.49,1.49 0 0 1 -0.55,0.1 1,1 0 0 1 -0.75,-0.27 1.11,1.11 0 0 1 -0.26,-0.79 v -2.58 h -0.5 a 0.15,0.15 0 0 1 -0.11,0 c 0,0 0,-0.06 0,-0.12 v -0.29 l 0.67,-0.09 0.17,-1.27 a 0.21,0.21 0 0 1 0.06,-0.1 0.16,0.16 0 0 1 0.11,0 h 0.36 v 1.42 h 2.85 z m 0.18,-5.45 a 0.45,0.45 0 0 1 0,0.2 0.91,0.91 0 0 1 -0.11,0.16 l -0.17,0.11 a 0.45,0.45 0 0 1 -0.2,0 0.48,0.48 0 0 1 -0.2,0 0.53,0.53 0 0 1 -0.27,-0.27 0.52,0.52 0 0 1 0,-0.4 1,1 0 0 1 0.11,-0.17 0.57,0.57 0 0 1 0.16,-0.11 0.48,0.48 0 0 1 0.2,0 0.45,0.45 0 0 1 0.2,0 0.62,0.62 0 0 1 0.17,0.11 1,1 0 0 1 0.11,0.17 0.45,0.45 0 0 1 0,0.2 z"
         fill="#333e48"
         id="path266" />
      <path
         inkscape:connector-curvature="0"
         d="m 264.27918,41.5 a 2.18,2.18 0 0 1 0.82,0.15 1.84,1.84 0 0 1 1,1.1 3,3 0 0 1 0,1.75 1.74,1.74 0 0 1 -0.4,0.67 1.65,1.65 0 0 1 -0.61,0.43 2.17,2.17 0 0 1 -0.82,0.14 2.14,2.14 0 0 1 -0.82,-0.14 1.69,1.69 0 0 1 -0.62,-0.43 1.85,1.85 0 0 1 -0.39,-0.67 2.8,2.8 0 0 1 0,-1.75 1.77,1.77 0 0 1 0.39,-0.67 1.69,1.69 0 0 1 0.62,-0.43 2.14,2.14 0 0 1 0.83,-0.15 z m 0,3.68 a 1.06,1.06 0 0 0 0.91,-0.41 1.89,1.89 0 0 0 0.3,-1.14 1.92,1.92 0 0 0 -0.3,-1.15 1.06,1.06 0 0 0 -0.91,-0.41 1.27,1.27 0 0 0 -0.54,0.1 1,1 0 0 0 -0.38,0.31 1.39,1.39 0 0 0 -0.24,0.52 2.62,2.62 0 0 0 -0.07,0.66 1.89,1.89 0 0 0 0.3,1.14 1.08,1.08 0 0 0 0.93,0.38 z"
         fill="#333e48"
         id="path268" />
      <path
         inkscape:connector-curvature="0"
         d="m 267.83918,42.16 a 2.44,2.44 0 0 1 0.29,-0.27 2.2,2.2 0 0 1 0.32,-0.21 1.92,1.92 0 0 1 0.36,-0.14 1.73,1.73 0 0 1 0.41,0 1.55,1.55 0 0 1 0.59,0.11 1.06,1.06 0 0 1 0.43,0.32 1.37,1.37 0 0 1 0.27,0.49 2.2,2.2 0 0 1 0.09,0.64 v 2.63 h -0.73 v -2.67 a 1.1,1.1 0 0 0 -0.22,-0.73 0.8,0.8 0 0 0 -0.65,-0.25 1.27,1.27 0 0 0 -0.6,0.15 2,2 0 0 0 -0.51,0.42 v 3 h -0.77 v -4.09 h 0.43 a 0.19,0.19 0 0 1 0.2,0.15 z"
         fill="#333e48"
         id="path270" />
      <path
         inkscape:connector-curvature="0"
         d="m 157.53,56.74 h 179.85 v 6 H 157.53 Z"
         fill="#82d2e3"
         id="path296" />
      <path
         inkscape:connector-curvature="0"
         d="M 331.94,41.52 V 77.97 L 350.16,59.74 Z"
         fill="#82d2e3"
         id="path298" />
    </g>
  </g>
</svg>
