<svg viewBox="0 0 500 100" xmlns="http://www.w3.org/2000/svg"><path d="m79.77 59.29a1.79 1.79 0 0 1 -1-.27l-11.32-6.88-11.35 6.86a1.92 1.92 0 0 1 -1.9 0l-12.32-7c-.08-.06-.16-.11-.25-.19l-12.07-6.96a1.91 1.91 0 0 1 -1-1.63v-14.17a1.86 1.86 0 0 1 1-1.64l12.32-7.07a2 2 0 0 1 1.9 0l11.75 6.91 11.75-6.91a1.87 1.87 0 0 1 1.91 0l24.26 14.2a1.88 1.88 0 0 1 .93 1.63v14.17a1.93 1.93 0 0 1 -1 1.64l-12.69 7.09a2 2 0 0 1 -.92.22z" fill="#fff"/><path d="m54.3 43.76h1.64v13.65h-1.64z" fill="#f7bc2f"/><path d="m66.6 36.99h1.64v13.65h-1.64z" fill="#f7bc2f"/><path d="m79 43.76h1.64v13.65h-1.64z" fill="#f7bc2f"/><path d="m55.01 44.72-24.95-14.97.84-1.41 24.12 14.47 12.4-7.26 12.4 7.26 12.26-7.34.84 1.41-13.09 7.84-12.41-7.27z" fill="#f7bc2f"/><path d="m42.22 51.76a.79.79 0 0 1 -.23-.57.8.8 0 0 1 .23-.58.82.82 0 0 1 .59-.24.78.78 0 0 1 .57.24.78.78 0 0 1 .25.58.77.77 0 0 1 -.25.57.79.79 0 0 1 -.57.25.83.83 0 0 1 -.59-.25z" fill="#f7bc2f"/><path d="m42 48.73a.82.82 0 0 1 .82-.82.82.82 0 0 1 .82.82.83.83 0 0 1 -.82.83.82.82 0 0 1 -.82-.83zm0-7.48a.81.81 0 0 1 .82-.82.82.82 0 0 1 .82.82.82.82 0 0 1 -.82.82.81.81 0 0 1 -.82-.82z" fill="#f7bc2f"/><path d="m44.23 35.54a.81.81 0 0 1 .27-1.13.81.81 0 0 1 1.12.28.81.81 0 0 1 -.27 1.12.81.81 0 0 1 -.42.12.81.81 0 0 1 -.7-.39zm6.39-3.9a.82.82 0 0 1 .27-1.13.83.83 0 0 1 1.13.28.81.81 0 0 1 -.27 1.12.88.88 0 0 1 -.43.12.81.81 0 0 1 -.7-.39z" fill="#f7bc2f"/><path d="m55.51 29.49h-.16a.49.49 0 0 1 -.16 0l-.14-.07-.12-.11a.68.68 0 0 1 -.18-.26.69.69 0 0 1 -.06-.31.7.7 0 0 1 .06-.32.8.8 0 0 1 .18-.27l.12-.09a.67.67 0 0 1 .14-.09h.16a.81.81 0 0 1 .73.22.83.83 0 0 1 .19.27.87.87 0 0 1 .06.32.79.79 0 0 1 -.25.57.77.77 0 0 1 -.57.14z" fill="#97c93d"/><path d="m54.54 29.24a.82.82 0 0 1 -.24-.57.87.87 0 0 1 .24-.59.85.85 0 0 1 .58-.23.84.84 0 0 1 .59.23.86.86 0 0 1 .23.59.81.81 0 0 1 -.23.57.82.82 0 0 1 -.59.25.83.83 0 0 1 -.58-.25z" fill="#f7bc2f"/><path d="m63.16 34.48a.82.82 0 0 1 -.27-1.13.82.82 0 0 1 1.11-.27.82.82 0 0 1 .28 1.12.83.83 0 0 1 -.71.4.88.88 0 0 1 -.41-.12zm-6.39-3.89a.83.83 0 0 1 -.28-1.13.83.83 0 0 1 1.13-.28.83.83 0 0 1 .27 1.14.81.81 0 0 1 -.7.39.81.81 0 0 1 -.42-.12z" fill="#f7bc2f"/><path d="m66.84 36.7a.82.82 0 0 1 -.25-.59.79.79 0 0 1 .25-.57.81.81 0 0 1 .58-.25.79.79 0 0 1 .58.25.82.82 0 0 1 .24.57.85.85 0 0 1 -.24.59.83.83 0 0 1 -.58.24.84.84 0 0 1 -.58-.24z" fill="#f7bc2f"/><path d="m68.84 35.24a.83.83 0 0 1 .27-1.13.83.83 0 0 1 1.13.27.82.82 0 0 1 -.24 1.13.79.79 0 0 1 -.44.12.81.81 0 0 1 -.72-.39zm6.37-4a.8.8 0 0 1 .26-1.12.82.82 0 0 1 1.13.26.83.83 0 0 1 -.26 1.14.88.88 0 0 1 -.43.12.8.8 0 0 1 -.7-.35z" fill="#f7bc2f"/><path d="m79.54 28.84a.86.86 0 0 1 -.24-.58.87.87 0 0 1 .24-.59.87.87 0 0 1 .59-.23.86.86 0 0 1 .57.23.83.83 0 0 1 .25.59.83.83 0 0 1 -.25.58.82.82 0 0 1 -.57.24.83.83 0 0 1 -.59-.24z" fill="#f7bc2f"/><path d="m68.55 22 24.26 14.2v14.12l-12.73 7.1-12.32-7.48-12.32 7.48-12.32-7.1-12.33-7.1v-14.17l12.33-7.05 12.7 7.48zm-25.43-3.81a3.85 3.85 0 0 0 -1.88.49l-12.32 7.1a3.76 3.76 0 0 0 -1.92 3.27v14.17a3.74 3.74 0 0 0 1.88 3.26l12 6.88a2.27 2.27 0 0 0 .38.25l12.32 7.07a3.8 3.8 0 0 0 3.83 0l10.37-6.29 10.36 6.29a3.71 3.71 0 0 0 3.78 0l12.7-7.1a3.75 3.75 0 0 0 1.94-3.29v-14.14a3.77 3.77 0 0 0 -1.85-3.24l-24.26-14.2a3.81 3.81 0 0 0 -3.81 0l-10.79 6.37-10.85-6.37a3.79 3.79 0 0 0 -1.9-.52z" fill="#f7bc2f"/><g fill="#333e48"><path d="m37.09 86.74h-1.09a.5.5 0 0 1 -.31-.09.64.64 0 0 1 -.18-.25l-1-2.55h-4.76l-1 2.55a.56.56 0 0 1 -.17.24.48.48 0 0 1 -.31.1h-1.1l4.23-10.59h1.45zm-3-3.93-1.65-4.31c0-.12-.1-.27-.16-.44s-.1-.35-.15-.55a8.54 8.54 0 0 1 -.32 1l-1.66 4.3z"/><path d="m39.4 80.42a4 4 0 0 1 1.09-.94 2.95 2.95 0 0 1 2.6-.11 2.41 2.41 0 0 1 .89.73 3.52 3.52 0 0 1 .57 1.2 6.32 6.32 0 0 1 .2 1.65 5.07 5.07 0 0 1 -.22 1.54 3.74 3.74 0 0 1 -.64 1.24 3 3 0 0 1 -2.38 1.12 2.7 2.7 0 0 1 -1.18-.24 2.8 2.8 0 0 1 -.86-.64v3.31h-1.33v-10h.79a.32.32 0 0 1 .35.27zm.07 4.52a2.11 2.11 0 0 0 .79.69 2.26 2.26 0 0 0 1 .2 1.9 1.9 0 0 0 1.61-.75 3.53 3.53 0 0 0 .52-2.08 5.11 5.11 0 0 0 -.13-1.25 2.35 2.35 0 0 0 -.37-.86 1.44 1.44 0 0 0 -.6-.5 2.09 2.09 0 0 0 -.81-.15 2.17 2.17 0 0 0 -1.12.29 3.19 3.19 0 0 0 -.89.84z"/><path d="m47.68 80.42a3.93 3.93 0 0 1 1.1-.94 2.75 2.75 0 0 1 1.42-.36 2.79 2.79 0 0 1 1.17.25 2.53 2.53 0 0 1 .9.73 3.7 3.7 0 0 1 .56 1.2 5.92 5.92 0 0 1 .17 1.7 5.07 5.07 0 0 1 -.22 1.54 3.56 3.56 0 0 1 -.64 1.24 2.92 2.92 0 0 1 -1 .82 3 3 0 0 1 -1.35.3 2.67 2.67 0 0 1 -1.18-.24 2.73 2.73 0 0 1 -.87-.64v3.31h-1.31v-10h.79a.33.33 0 0 1 .35.27zm.07 4.52a2.19 2.19 0 0 0 .79.69 2.32 2.32 0 0 0 1 .2 1.88 1.88 0 0 0 1.61-.75 3.46 3.46 0 0 0 .52-2.08 5.7 5.7 0 0 0 -.12-1.25 2.54 2.54 0 0 0 -.38-.86 1.44 1.44 0 0 0 -.6-.5 2 2 0 0 0 -.8-.15 2.18 2.18 0 0 0 -1.13.29 3.33 3.33 0 0 0 -.89.84z"/><path d="m56.07 75.86v10.88h-1.31v-10.88z"/><path d="m59.87 76.91a.86.86 0 0 1 -.08.36 1 1 0 0 1 -.2.29.79.79 0 0 1 -.31.2.9.9 0 0 1 -.36.08.86.86 0 0 1 -.36-.08.72.72 0 0 1 -.29-.2.84.84 0 0 1 -.2-.29.86.86 0 0 1 -.08-.36 1 1 0 0 1 .08-.37 1 1 0 0 1 .2-.3.84.84 0 0 1 .29-.2.86.86 0 0 1 .36-.08.9.9 0 0 1 .36.08.92.92 0 0 1 .31.2 1.21 1.21 0 0 1 .2.3 1 1 0 0 1 .08.37zm-.28 2.35v7.48h-1.32v-7.48z"/><path d="m67 80.59a.68.68 0 0 1 -.12.12.28.28 0 0 1 -.16.05.45.45 0 0 1 -.25-.09 3.89 3.89 0 0 0 -.33-.21 2.78 2.78 0 0 0 -.48-.2 2.33 2.33 0 0 0 -.7-.09 2.27 2.27 0 0 0 -1 .19 1.87 1.87 0 0 0 -.71.57 2.55 2.55 0 0 0 -.43.89 4.71 4.71 0 0 0 -.15 1.18 4.12 4.12 0 0 0 .16 1.21 2.51 2.51 0 0 0 .44.88 1.82 1.82 0 0 0 .68.55 2.44 2.44 0 0 0 1.7.07 2 2 0 0 0 .51-.25 4.18 4.18 0 0 0 .34-.26.45.45 0 0 1 .27-.11.29.29 0 0 1 .25.12l.37.48a2.26 2.26 0 0 1 -.55.52 3.91 3.91 0 0 1 -.67.36 3.21 3.21 0 0 1 -.75.21 4.25 4.25 0 0 1 -.8.07 3.28 3.28 0 0 1 -1.3-.26 3 3 0 0 1 -1-.75 3.48 3.48 0 0 1 -.69-1.21 5.39 5.39 0 0 1 0-3.18 3.38 3.38 0 0 1 .68-1.22 3.07 3.07 0 0 1 1.1-.8 3.72 3.72 0 0 1 1.5-.29 3.61 3.61 0 0 1 1.4.25 3.32 3.32 0 0 1 1.06.72z"/><path d="m68.61 80.31a4.54 4.54 0 0 1 1.39-.89 4.09 4.09 0 0 1 1.59-.3 2.75 2.75 0 0 1 1.11.21 2.22 2.22 0 0 1 .82.58 2.36 2.36 0 0 1 .51.89 3.87 3.87 0 0 1 .12 1.2v4.78h-.59a.57.57 0 0 1 -.29-.06.41.41 0 0 1 -.17-.25l-.1-.75a6.05 6.05 0 0 1 -.58.49 3 3 0 0 1 -.59.35 3 3 0 0 1 -.66.22 3.22 3.22 0 0 1 -.78.08 2.71 2.71 0 0 1 -.82-.12 1.75 1.75 0 0 1 -.67-.37 1.65 1.65 0 0 1 -.45-.61 2.21 2.21 0 0 1 -.17-.89 1.58 1.58 0 0 1 .25-.85 2.09 2.09 0 0 1 .79-.73 5.37 5.37 0 0 1 1.42-.52 11.43 11.43 0 0 1 2.16-.23v-.54a1.93 1.93 0 0 0 -.38-1.32 1.34 1.34 0 0 0 -1.1-.45 2.39 2.39 0 0 0 -.81.12 3 3 0 0 0 -.57.27l-.42.28a.59.59 0 0 1 -.34.12.35.35 0 0 1 -.23-.07.85.85 0 0 1 -.16-.17zm4.25 3.06a10.43 10.43 0 0 0 -1.55.15 3.92 3.92 0 0 0 -1 .3 1.44 1.44 0 0 0 -.58.43 1 1 0 0 0 -.18.56 1.29 1.29 0 0 0 .09.51 1.08 1.08 0 0 0 .26.36 1.25 1.25 0 0 0 .4.2 1.86 1.86 0 0 0 .48.06 2.62 2.62 0 0 0 .64-.07 2.52 2.52 0 0 0 .54-.21 2.87 2.87 0 0 0 .49-.31q.23-.19.45-.42z"/><path d="m83 86.74h-1.32v-6.38h-3.85v4.49a.91.91 0 0 0 .23.7.77.77 0 0 0 .59.23 1.36 1.36 0 0 0 .36 0l.26-.12.19-.13a.27.27 0 0 1 .13 0 .24.24 0 0 1 .19.12l.38.63a2.41 2.41 0 0 1 -.82.5 2.8 2.8 0 0 1 -1 .18 1.8 1.8 0 0 1 -1.34-.59 2 2 0 0 1 -.48-1.43v-4.58h-.9a.27.27 0 0 1 -.2-.07.29.29 0 0 1 -.08-.22v-.52l1.23-.17.3-2.3a.27.27 0 0 1 .1-.18.27.27 0 0 1 .2-.07h.67v2.58h5.16zm.33-9.88a.85.85 0 0 1 -.08.35.9.9 0 0 1 -.21.3 1.21 1.21 0 0 1 -.3.2 1 1 0 0 1 -.72 0 1 1 0 0 1 -.29-.2 1 1 0 0 1 -.2-.3.84.84 0 0 1 -.07-.35.94.94 0 0 1 .07-.37.93.93 0 0 1 .2-.3.92.92 0 0 1 1-.21 1 1 0 0 1 .3.21.81.81 0 0 1 .21.3 1 1 0 0 1 .09.37z"/><path d="m88.31 79.14a3.86 3.86 0 0 1 1.48.27 3.18 3.18 0 0 1 1.12.78 3.33 3.33 0 0 1 .72 1.21 5 5 0 0 1 .25 1.6 4.91 4.91 0 0 1 -.25 1.59 3.37 3.37 0 0 1 -.72 1.22 3.16 3.16 0 0 1 -1.12.77 3.86 3.86 0 0 1 -1.48.27 4 4 0 0 1 -1.49-.27 3.16 3.16 0 0 1 -1.12-.77 3.52 3.52 0 0 1 -.7-1.22 4.92 4.92 0 0 1 -.26-1.59 5 5 0 0 1 .26-1.6 3.48 3.48 0 0 1 .72-1.21 3.18 3.18 0 0 1 1.12-.78 4 4 0 0 1 1.47-.27zm0 6.68a2 2 0 0 0 1.69-.74 4.21 4.21 0 0 0 0-4.16 1.93 1.93 0 0 0 -1.66-.75 2.32 2.32 0 0 0 -1 .2 1.76 1.76 0 0 0 -.69.55 2.36 2.36 0 0 0 -.41.89 4.37 4.37 0 0 0 -.15 1.19 3.43 3.43 0 0 0 .55 2.08 2 2 0 0 0 1.67.74z"/><path d="m94.78 80.34a4 4 0 0 1 .52-.49 2.76 2.76 0 0 1 .58-.38 2.83 2.83 0 0 1 .65-.25 3.43 3.43 0 0 1 .74-.08 2.77 2.77 0 0 1 1.08.2 2.11 2.11 0 0 1 .79.58 2.57 2.57 0 0 1 .47.9 3.82 3.82 0 0 1 .17 1.18v4.76h-1.33v-4.76a2 2 0 0 0 -.39-1.32 1.43 1.43 0 0 0 -1.17-.47 2.16 2.16 0 0 0 -1.09.28 3.7 3.7 0 0 0 -.94.76v5.51h-1.32v-7.5h.79a.33.33 0 0 1 .35.27z"/></g><path d="m372.89 10.57h56.85a2.26 2.26 0 0 1 2.26 2.26v9.75a2.25 2.25 0 0 1 -2.25 2.25h-56.86a2.25 2.25 0 0 1 -2.25-2.25v-9.75a2.26 2.26 0 0 1 2.25-2.26z" fill="#7e868c"/><path d="m370.64 16.39h61.35v46.9h-61.35z" fill="#fff"/><circle cx="379.55" cy="13.48" fill="#97c93d" r="1.03"/><circle cx="376.55" cy="13.48" fill="#ffc808" r="1.03"/><circle cx="373.55" cy="13.48" fill="#f36d21" r="1.03"/><path d="m385.65 48.29h2.06v2.06h-2.06z" fill="#d9dcdb"/><path d="m385.65 43.6h2.06v2.06h-2.06z" fill="#d9dcdb"/><path d="m389.78 48.29h28.52v2.06h-28.52z" fill="#97c93d"/><path d="m389.78 43.6h22.14v2.06h-22.14z" fill="#7e868c"/><path d="m370.64 16.39h11.82v46.9h-11.82z" fill="#d9dcdb"/><path d="m385.65 52.23h46.34v11.07h-46.34z" fill="#d9dcdb"/><path d="m372.52 31.59h2.06v2.06h-2.06z" fill="#7e868c"/><path d="m372.52 26.9h2.06v2.06h-2.06z" fill="#7e868c"/><path d="m372.52 22.21h2.06v2.06h-2.06z" fill="#7e868c"/><path d="m371.39 16.2h60.04v4.88h-60.04z" fill="#068fbe"/><path d="m431.05 15.83v46.53h-59.47v-46.53zm.94-.94h-61.35v48.41h61.36z" fill="#7e868c"/><path d="m382.46 12.45h37.71v2.06h-37.71z" fill="#d9dcdb"/><g fill="#333e48"><path d="m391.63 29.17a2.55 2.55 0 1 1 -2.23-3.79 2.56 2.56 0 0 1 2.12 1.12l.94-.75a3.75 3.75 0 1 0 .32 3.81z"/><path d="m397.06 24.18h.82v7.41h-.82z"/><path d="m393.75 27.52h7.43v.82h-7.43z"/><path d="m405.69 24.18h.82v7.41h-.82z"/><path d="m402.38 27.52h7.43v.82h-7.43z"/><path d="m338 76.93v10.59h-1.25v-7.78c0-.1 0-.21 0-.33s0-.24 0-.36l-3.63 6.62a.56.56 0 0 1 -.52.33h-.21a.54.54 0 0 1 -.51-.33l-3.72-6.67a6.24 6.24 0 0 1 0 .72v7.78h-1.26v-10.57h1.1a1.08 1.08 0 0 1 .3 0c.07 0 .13.09.2.21l3.65 6.51.18.37c.05.13.11.26.16.4l.15-.4.18-.37 3.59-6.51a.37.37 0 0 1 .2-.21 1.08 1.08 0 0 1 .3 0z"/><path d="m341.57 81.12a3.73 3.73 0 0 1 1.07-.88 2.86 2.86 0 0 1 1.37-.32 2.65 2.65 0 0 1 1.18.25 2.37 2.37 0 0 1 .9.73 3.26 3.26 0 0 1 .57 1.15 5.62 5.62 0 0 1 .19 1.53 5.75 5.75 0 0 1 -.22 1.66 3.7 3.7 0 0 1 -.64 1.27 2.76 2.76 0 0 1 -1 .82 3 3 0 0 1 -1.35.3 2.58 2.58 0 0 1 -1.24-.28 2.78 2.78 0 0 1 -.89-.79l-.06.68a.32.32 0 0 1 -.34.28h-.85v-10.88h1.32zm0 4.6a2 2 0 0 0 1.74.89 1.89 1.89 0 0 0 1.62-.75 3.64 3.64 0 0 0 .56-2.22 3.3 3.3 0 0 0 -.5-2 1.68 1.68 0 0 0 -1.42-.64 2.15 2.15 0 0 0 -1.12.29 3.3 3.3 0 0 0 -.88.84z"/><path d="m354.6 86.47a2.48 2.48 0 0 1 -.6.53 4.4 4.4 0 0 1 -.72.36 5.34 5.34 0 0 1 -.81.21 5.55 5.55 0 0 1 -.82.07 3.75 3.75 0 0 1 -1.43-.27 3.22 3.22 0 0 1 -1.13-.76 3.72 3.72 0 0 1 -.74-1.26 5 5 0 0 1 -.27-1.71 4.2 4.2 0 0 1 .25-1.47 3.42 3.42 0 0 1 .67-1.17 3 3 0 0 1 1.1-.79 3.59 3.59 0 0 1 1.46-.28 3.42 3.42 0 0 1 1.25.22 2.89 2.89 0 0 1 1 .65 3.27 3.27 0 0 1 .65 1 4 4 0 0 1 .24 1.43.91.91 0 0 1 -.07.41.27.27 0 0 1 -.25.1h-5a4.43 4.43 0 0 0 .19 1.24 2.44 2.44 0 0 0 .49.87 1.91 1.91 0 0 0 .73.53 2.7 2.7 0 0 0 1 .17 3 3 0 0 0 .85-.11 4.69 4.69 0 0 0 .62-.25c.17-.09.31-.17.43-.25a.58.58 0 0 1 .3-.11.29.29 0 0 1 .25.12zm-1.07-3.47a2.55 2.55 0 0 0 -.13-.84 1.81 1.81 0 0 0 -.37-.65 1.7 1.7 0 0 0 -.6-.43 2.09 2.09 0 0 0 -.81-.15 2 2 0 0 0 -1.5.55 2.59 2.59 0 0 0 -.68 1.52z"/><path d="m362.52 76.64v10.88h-.78a.34.34 0 0 1 -.36-.27l-.12-.91a4.18 4.18 0 0 1 -1.09.93 2.75 2.75 0 0 1 -1.42.36 2.79 2.79 0 0 1 -1.17-.25 2.5 2.5 0 0 1 -.89-.73 3.35 3.35 0 0 1 -.57-1.2 6.19 6.19 0 0 1 -.2-1.64 5.14 5.14 0 0 1 .22-1.55 3.78 3.78 0 0 1 .64-1.23 2.91 2.91 0 0 1 1-.83 3 3 0 0 1 1.36-.3 2.67 2.67 0 0 1 1.18.24 2.73 2.73 0 0 1 .87.64v-4.14zm-1.32 5.18a2.1 2.1 0 0 0 -.79-.69 2.32 2.32 0 0 0 -1-.2 1.9 1.9 0 0 0 -1.61.75 3.49 3.49 0 0 0 -.56 2.13 5.11 5.11 0 0 0 .13 1.25 2.26 2.26 0 0 0 .37.86 1.54 1.54 0 0 0 .59.49 2.09 2.09 0 0 0 .81.15 2.18 2.18 0 0 0 1.13-.29 3.19 3.19 0 0 0 .89-.84z"/><path d="m378.48 82.23a6.12 6.12 0 0 1 -.37 2.18 5.11 5.11 0 0 1 -1.11 1.72 5 5 0 0 1 -1.65 1.11 6 6 0 0 1 -4.26 0 5 5 0 0 1 -1.65-1.11 4.94 4.94 0 0 1 -1.06-1.72 6.44 6.44 0 0 1 0-4.36 4.94 4.94 0 0 1 1.06-1.72 4.87 4.87 0 0 1 1.65-1.12 5.87 5.87 0 0 1 4.26 0 4.87 4.87 0 0 1 1.65 1.12 5.11 5.11 0 0 1 1.07 1.72 6.12 6.12 0 0 1 .41 2.18zm-1.47 0a5.6 5.6 0 0 0 -.26-1.75 3.68 3.68 0 0 0 -.76-1.31 3.32 3.32 0 0 0 -1.18-.83 4.43 4.43 0 0 0 -3.1 0 3.32 3.32 0 0 0 -1.18.83 3.68 3.68 0 0 0 -.76 1.31 5.81 5.81 0 0 0 0 3.5 3.77 3.77 0 0 0 .76 1.31 3.3 3.3 0 0 0 1.18.82 4.43 4.43 0 0 0 3.1 0 3.3 3.3 0 0 0 1.18-.82 3.77 3.77 0 0 0 .76-1.31 5.6 5.6 0 0 0 .25-1.75z"/><path d="m381.31 81.12a5.94 5.94 0 0 1 .52-.49 3 3 0 0 1 .58-.38 2.83 2.83 0 0 1 .65-.25 3.5 3.5 0 0 1 .74-.08 2.86 2.86 0 0 1 1.09.2 2.16 2.16 0 0 1 .78.58 2.59 2.59 0 0 1 .48.9 4.17 4.17 0 0 1 .16 1.16v4.76h-1.31v-4.76a2 2 0 0 0 -.39-1.32 1.42 1.42 0 0 0 -1.18-.47 2.19 2.19 0 0 0 -1.09.28 3.7 3.7 0 0 0 -.94.76v5.51h-1.32v-7.52h.79a.33.33 0 0 1 .35.27z"/><path d="m389.68 76.64v10.88h-1.32v-10.88z"/><path d="m393.48 77.69a.85.85 0 0 1 -.08.35.9.9 0 0 1 -.21.3.88.88 0 0 1 -.3.2 1 1 0 0 1 -.37.08.9.9 0 0 1 -.36-.08.94.94 0 0 1 -.29-.2 1 1 0 0 1 -.2-.3.84.84 0 0 1 -.07-.35.94.94 0 0 1 .07-.37.93.93 0 0 1 .2-.3 1 1 0 0 1 .29-.21 1.1 1.1 0 0 1 .36-.07 1.16 1.16 0 0 1 .37.07.9.9 0 0 1 .3.21.81.81 0 0 1 .21.3 1 1 0 0 1 .08.37zm-.28 2.31v7.48h-1.32v-7.48z"/><path d="m396.59 81.12a5.94 5.94 0 0 1 .52-.49 3 3 0 0 1 .58-.38 3 3 0 0 1 .65-.25 3.52 3.52 0 0 1 .75-.08 2.81 2.81 0 0 1 1.08.2 2.16 2.16 0 0 1 .78.58 2.59 2.59 0 0 1 .48.9 3.83 3.83 0 0 1 .16 1.16v4.76h-1.32v-4.76a2 2 0 0 0 -.39-1.32 1.42 1.42 0 0 0 -1.18-.44 2.19 2.19 0 0 0 -1.09.28 3.49 3.49 0 0 0 -.93.76v5.51h-1.33v-7.55h.79a.32.32 0 0 1 .35.27z"/><path d="m409.67 86.47a2.42 2.42 0 0 1 -.58.52 4.5 4.5 0 0 1 -.73.36 5.22 5.22 0 0 1 -.8.21 5.67 5.67 0 0 1 -.82.07 3.72 3.72 0 0 1 -1.43-.27 3.13 3.13 0 0 1 -1.13-.76 3.56 3.56 0 0 1 -.74-1.26 5 5 0 0 1 -.27-1.71 4.44 4.44 0 0 1 .24-1.47 3.42 3.42 0 0 1 .69-1.16 3.13 3.13 0 0 1 1.1-.79 3.64 3.64 0 0 1 1.47-.28 3.33 3.33 0 0 1 1.24.22 2.89 2.89 0 0 1 1 .65 3.13 3.13 0 0 1 .66 1 4.2 4.2 0 0 1 .23 1.43.94.94 0 0 1 -.06.41.28.28 0 0 1 -.25.1h-5a4.41 4.41 0 0 0 .2 1.24 2.43 2.43 0 0 0 .48.87 2 2 0 0 0 .74.53 2.69 2.69 0 0 0 1 .17 3.1 3.1 0 0 0 .86-.11 4.52 4.52 0 0 0 .61-.25 4.05 4.05 0 0 0 .44-.25.59.59 0 0 1 .29-.11.31.31 0 0 1 .26.12zm-1.06-3.47a2.55 2.55 0 0 0 -.13-.84 1.83 1.83 0 0 0 -.38-.65 1.54 1.54 0 0 0 -.6-.43 2 2 0 0 0 -.8-.15 2 2 0 0 0 -1.5.55 2.53 2.53 0 0 0 -.68 1.52z"/><path d="m422.93 85.33a.3.3 0 0 1 .21.1l.57.61a4.41 4.41 0 0 1 -1.58 1.18 5.4 5.4 0 0 1 -2.24.42 5.3 5.3 0 0 1 -2.07-.39 4.74 4.74 0 0 1 -1.59-1.11 5.05 5.05 0 0 1 -1-1.71 6.47 6.47 0 0 1 -.36-2.2 5.93 5.93 0 0 1 .38-2.19 4.94 4.94 0 0 1 1.06-1.72 4.63 4.63 0 0 1 1.63-1.11 5.55 5.55 0 0 1 2.11-.4 5 5 0 0 1 3.52 1.35l-.48.66a.32.32 0 0 1 -.11.12.36.36 0 0 1 -.19 0 .54.54 0 0 1 -.32-.15c-.13-.09-.3-.2-.51-.32a3.8 3.8 0 0 0 -.77-.32 4.41 4.41 0 0 0 -2.65.14 3.31 3.31 0 0 0 -1.17.82 3.72 3.72 0 0 0 -.76 1.32 5.06 5.06 0 0 0 -.28 1.75 5.13 5.13 0 0 0 .27 1.82 4 4 0 0 0 .77 1.31 3.36 3.36 0 0 0 1.16.82 3.86 3.86 0 0 0 1.45.28 5.48 5.48 0 0 0 .85-.06 3.59 3.59 0 0 0 .7-.17 2.8 2.8 0 0 0 .6-.3 4.32 4.32 0 0 0 .55-.43.39.39 0 0 1 .25-.12z"/><path d="m428.07 79.92a3.86 3.86 0 0 1 1.48.27 3.06 3.06 0 0 1 1.12.78 3.31 3.31 0 0 1 .71 1.21 4.75 4.75 0 0 1 .25 1.6 4.65 4.65 0 0 1 -.25 1.59 3.31 3.31 0 0 1 -.71 1.21 3.06 3.06 0 0 1 -1.12.78 3.86 3.86 0 0 1 -1.48.27 3.92 3.92 0 0 1 -1.49-.27 3.1 3.1 0 0 1 -1.13-.78 3.31 3.31 0 0 1 -.71-1.21 4.65 4.65 0 0 1 -.25-1.59 4.75 4.75 0 0 1 .25-1.6 3.31 3.31 0 0 1 .71-1.21 3.1 3.1 0 0 1 1.13-.78 3.92 3.92 0 0 1 1.49-.27zm0 6.68a1.92 1.92 0 0 0 1.65-.74 4.21 4.21 0 0 0 0-4.16 1.9 1.9 0 0 0 -1.65-.75 2.45 2.45 0 0 0 -1 .19 1.8 1.8 0 0 0 -.69.56 2.37 2.37 0 0 0 -.42.89 4.8 4.8 0 0 0 -.14 1.19 3.43 3.43 0 0 0 .56 2.08 1.94 1.94 0 0 0 1.69.74z"/><path d="m433.29 87.52v-7.52h.79a.32.32 0 0 1 .35.27l.1.77a3.7 3.7 0 0 1 .93-.84 2.24 2.24 0 0 1 1.2-.32 1.76 1.76 0 0 1 1.22.42 2.32 2.32 0 0 1 .67 1.14 2.46 2.46 0 0 1 1-1.19 2.51 2.51 0 0 1 .68-.28 3 3 0 0 1 .73-.09 2.69 2.69 0 0 1 1.05.19 2.09 2.09 0 0 1 .79.55 2.63 2.63 0 0 1 .49.89 4 4 0 0 1 .17 1.21v4.76h-1.33v-4.72a2 2 0 0 0 -.38-1.34 1.39 1.39 0 0 0 -1.11-.45 1.84 1.84 0 0 0 -.62.11 1.51 1.51 0 0 0 -.86.9 2.06 2.06 0 0 0 -.13.78v4.76h-1.33v-4.76a2.11 2.11 0 0 0 -.36-1.35 1.32 1.32 0 0 0 -1.06-.44 1.58 1.58 0 0 0 -.9.26 2.81 2.81 0 0 0 -.76.71v5.58z"/><path d="m446.71 81.2a3.74 3.74 0 0 1 1.09-.94 2.93 2.93 0 0 1 2.59-.11 2.53 2.53 0 0 1 .9.73 3.93 3.93 0 0 1 .57 1.2 6.32 6.32 0 0 1 .2 1.65 5.07 5.07 0 0 1 -.23 1.54 3.72 3.72 0 0 1 -.63 1.24 3.13 3.13 0 0 1 -1 .82 3 3 0 0 1 -1.36.3 2.67 2.67 0 0 1 -1.18-.24 2.73 2.73 0 0 1 -.87-.64v3.31h-1.32v-10.06h.79a.33.33 0 0 1 .35.27zm.06 4.52a2.29 2.29 0 0 0 .79.69 2.32 2.32 0 0 0 1 .2 1.91 1.91 0 0 0 1.62-.75 3.53 3.53 0 0 0 .56-2.13 5.58 5.58 0 0 0 -.13-1.25 2.49 2.49 0 0 0 -.38-.87 1.54 1.54 0 0 0 -.59-.49 2.09 2.09 0 0 0 -.81-.15 2.21 2.21 0 0 0 -1.13.29 3.33 3.33 0 0 0 -.89.84z"/><path d="m455.4 77.69a.84.84 0 0 1 -.07.35 1.08 1.08 0 0 1 -.21.3 1 1 0 0 1 -.3.2 1 1 0 0 1 -.37.08.86.86 0 0 1 -.36-.08.84.84 0 0 1 -.29-.2 1 1 0 0 1 -.2-.3.84.84 0 0 1 -.07-.35.94.94 0 0 1 .07-.37.93.93 0 0 1 .2-.3.86.86 0 0 1 .29-.21 1 1 0 0 1 .36-.07 1.16 1.16 0 0 1 .37.07 1 1 0 0 1 .3.21 1 1 0 0 1 .21.3.94.94 0 0 1 .07.37zm-.28 2.31v7.48h-1.31v-7.48z"/><path d="m458.64 76.64v10.88h-1.31v-10.88z"/><path d="m466.84 86.47a2.42 2.42 0 0 1 -.58.52 4.5 4.5 0 0 1 -.73.36 5.54 5.54 0 0 1 -.8.21 5.79 5.79 0 0 1 -.82.07 3.72 3.72 0 0 1 -1.43-.27 3.13 3.13 0 0 1 -1.13-.76 3.42 3.42 0 0 1 -.74-1.26 5 5 0 0 1 -.27-1.71 4.44 4.44 0 0 1 .24-1.47 3.42 3.42 0 0 1 .69-1.17 3.13 3.13 0 0 1 1.1-.79 3.62 3.62 0 0 1 1.46-.28 3.39 3.39 0 0 1 1.25.22 2.89 2.89 0 0 1 1 .65 3 3 0 0 1 .65 1 4 4 0 0 1 .24 1.43.79.79 0 0 1 -.07.41c0 .07-.12.1-.25.1h-5a4.41 4.41 0 0 0 .2 1.24 2.28 2.28 0 0 0 .48.87 1.94 1.94 0 0 0 .74.53 2.65 2.65 0 0 0 1 .17 3 3 0 0 0 .85-.11 4.19 4.19 0 0 0 .62-.25 3.81 3.81 0 0 0 .43-.25.65.65 0 0 1 .3-.11.29.29 0 0 1 .25.12zm-1.06-3.47a2.55 2.55 0 0 0 -.13-.84 1.83 1.83 0 0 0 -.38-.65 1.54 1.54 0 0 0 -.6-.43 2.05 2.05 0 0 0 -.81-.15 2 2 0 0 0 -1.49.55 2.54 2.54 0 0 0 -.69 1.52z"/><path d="m469.82 81.54a3.33 3.33 0 0 1 .87-1.2 1.92 1.92 0 0 1 1.31-.44 1.68 1.68 0 0 1 .45.06 1 1 0 0 1 .39.16l-.1 1a.22.22 0 0 1 -.22.19 1.53 1.53 0 0 1 -.3-.05 2 2 0 0 0 -.45 0 1.74 1.74 0 0 0 -.63.1 1.45 1.45 0 0 0 -.5.31 2.28 2.28 0 0 0 -.39.5 3.88 3.88 0 0 0 -.31.68v4.73h-1.33v-7.58h.76a.37.37 0 0 1 .29.08.46.46 0 0 1 .11.28z"/></g><path d="m118.06 42.43h196.11v6h-196.11z" fill="#82d2e3"/><path d="m308.73 27.21v36.45l18.21-18.22z" fill="#82d2e3"/></svg>